<?xml version="1.0" encoding="utf-8"?>
<!DOCTYPE svg PUBLIC "-//W3C//DTD SVG 20010904//EN" "http://www.w3.org/TR/2001/REC-SVG-20010904/DTD/svg10.dtd">
<svg version="1.0" xmlns="http://www.w3.org/2000/svg" width="796pt" height="203pt" viewBox="0 0 796 203" style="" preserveAspectRatio="xMidYMid meet">
<g fill="#2D3E50FF" stroke="#2D3E50FF">
<path d="M 675.890 3.443 C 675.557 3.776 675.601 194.220 675.936 200.750 C 675.986 201.735 688.601 202.000 735.500 202.000 L 795.000 202.000 795.000 102.500 L 795.000 3.000 735.667 3.000 C 703.033 3.000 676.134 3.199 675.890 3.443 M 748.369 46.508 C 766.387 51.201 780.870 64.257 788.016 82.248 L 790.500 88.500 790.500 126.500 L 790.500 164.500 788.069 169.500 C 786.687 172.343 782.317 177.806 777.939 182.163 C 771.985 188.089 768.342 190.742 761.870 193.864 C 757.266 196.085 751.475 198.363 749.000 198.926 C 742.326 200.446 726.254 200.217 719.693 198.508 C 703.035 194.169 685.531 179.350 681.102 165.836 C 679.404 160.652 681.637 155.467 686.432 153.464 C 693.488 150.516 698.281 152.426 702.284 159.781 C 705.760 166.166 712.680 172.495 719.825 175.822 C 724.692 178.088 726.852 178.466 735.000 178.482 C 749.373 178.509 757.823 174.369 765.538 163.517 C 768.534 159.304 769.000 157.863 769.000 152.824 C 769.000 147.434 768.014 145.550 766.486 148.022 C 765.237 150.043 754.297 154.841 748.206 156.039 C 739.214 157.808 722.902 156.831 716.184 154.122 C 709.339 151.360 701.826 146.504 695.369 140.667 C 689.535 135.393 682.956 123.767 680.525 114.436 C 678.438 106.421 678.581 93.967 680.855 85.766 C 685.761 68.075 702.781 51.511 721.124 46.578 C 728.233 44.666 741.169 44.632 748.369 46.508 "/></g>
<g fill="#FFFFFFFF" stroke="#FFFFFFFF">
<path d="M 721.124 46.578 C 702.781 51.511 685.761 68.075 680.855 85.766 C 678.581 93.967 678.438 106.421 680.525 114.436 C 682.956 123.767 689.535 135.393 695.369 140.667 C 701.826 146.504 709.339 151.360 716.184 154.122 C 722.902 156.831 739.214 157.808 748.206 156.039 C 754.297 154.841 765.237 150.043 766.486 148.022 C 768.014 145.550 769.000 147.434 769.000 152.824 C 769.000 157.863 768.534 159.304 765.538 163.517 C 757.823 174.369 749.373 178.509 735.000 178.482 C 726.852 178.466 724.692 178.088 719.825 175.822 C 712.680 172.495 705.760 166.166 702.284 159.781 C 698.281 152.426 693.488 150.516 686.432 153.464 C 681.637 155.467 679.404 160.652 681.102 165.836 C 685.531 179.350 703.035 194.169 719.693 198.508 C 726.254 200.217 742.326 200.446 749.000 198.926 C 751.475 198.363 757.266 196.085 761.870 193.864 C 768.342 190.742 771.985 188.089 777.939 182.163 C 782.317 177.806 786.687 172.343 788.069 169.500 L 790.500 164.500 790.500 126.500 L 790.500 88.500 788.016 82.248 C 780.870 64.257 766.387 51.201 748.369 46.508 C 741.169 44.632 728.233 44.666 721.124 46.578 M 749.558 70.134 C 755.720 73.208 763.157 80.325 766.137 86.000 C 768.185 89.901 768.500 91.898 768.500 101.000 C 768.500 110.756 768.297 111.845 765.635 116.375 C 761.246 123.841 756.382 128.665 750.161 131.720 C 745.151 134.180 743.407 134.496 735.000 134.463 C 726.606 134.430 724.878 134.103 720.162 131.652 C 713.370 128.121 706.453 121.220 703.671 115.196 C 700.557 108.456 700.548 93.284 703.653 87.500 C 708.663 78.170 716.452 70.955 724.293 68.384 C 730.703 66.281 743.631 67.176 749.558 70.134 "/></g>
<g fill="#2D3E50FF" stroke="#2D3E50FF">
<path d="M 103.788 3.160 C 102.296 3.700 100.100 5.720 98.908 7.649 C 96.883 10.926 96.761 12.189 97.064 26.828 C 97.483 47.075 97.224 54.000 96.050 54.000 C 95.528 54.000 93.165 52.701 90.800 51.113 C 83.000 45.876 77.832 44.651 63.500 44.640 C 52.560 44.631 49.470 44.988 44.000 46.892 C 35.046 50.010 29.576 53.723 21.175 62.388 C 4.196 79.898 0.765 102.739 11.655 125.768 C 15.657 134.230 19.105 138.425 27.142 144.609 C 45.215 158.516 67.308 160.778 87.704 150.809 C 97.002 146.264 108.457 134.863 112.844 125.787 C 118.672 113.730 118.963 110.503 118.983 57.827 L 119.000 10.153 116.456 7.130 C 114.151 4.391 112.549 3.516 108.000 2.510 C 107.175 2.327 105.280 2.620 103.788 3.160 M 76.704 68.647 C 85.004 72.847 90.487 78.212 94.213 85.782 C 97.103 91.651 97.499 93.427 97.495 100.479 C 97.492 107.201 97.044 109.410 94.735 114.121 C 90.770 122.208 84.720 128.604 77.620 132.215 C 72.120 135.012 70.582 135.329 62.441 135.345 C 55.008 135.360 52.530 134.951 48.632 133.064 C 32.847 125.423 24.355 110.113 27.489 94.945 C 30.197 81.833 39.309 71.099 51.419 66.756 C 58.736 64.132 69.348 64.926 76.704 68.647 "/></g>
<g fill="#2D3E50FF" stroke="#2D3E50FF">
<path d="M 488.418 2.969 C 487.274 3.432 485.130 5.245 483.655 6.998 L 480.974 10.185 481.352 31.617 C 481.565 43.714 481.338 53.291 480.829 53.606 C 480.334 53.912 477.807 52.812 475.214 51.163 C 467.447 46.220 460.128 44.549 446.500 44.606 C 436.758 44.647 433.298 45.076 428.113 46.885 C 419.210 49.992 412.613 54.501 404.766 62.844 C 393.611 74.704 390.000 84.050 390.000 101.062 C 390.000 113.071 392.112 120.469 398.587 131.137 C 404.102 140.224 416.110 149.653 427.686 153.984 C 435.375 156.861 448.616 157.600 457.711 155.661 C 477.913 151.354 493.767 136.783 500.864 116.000 C 502.154 112.223 502.439 103.349 502.634 60.800 C 502.862 11.218 502.822 10.044 500.841 7.525 C 499.727 6.109 497.227 4.286 495.285 3.475 C 491.309 1.813 491.280 1.811 488.418 2.969 M 460.750 68.671 C 469.008 72.849 474.493 78.225 478.213 85.785 C 481.107 91.664 481.498 93.424 481.487 100.487 C 481.477 107.192 481.024 109.432 478.727 114.126 C 474.787 122.179 468.721 128.600 461.620 132.235 C 456.128 135.046 454.576 135.371 446.500 135.404 C 438.532 135.437 436.869 135.115 432.000 132.602 C 423.530 128.231 418.687 123.757 414.934 116.834 C 411.707 110.881 411.500 109.929 411.503 101.000 C 411.505 92.923 411.862 90.826 413.887 87.000 C 419.848 75.735 427.276 69.024 436.746 66.351 C 443.916 64.326 454.110 65.311 460.750 68.671 "/></g>
<g fill="#2D3E50FF" stroke="#2D3E50FF">
<path d="M 316.209 47.556 C 306.967 50.044 299.947 54.056 292.604 61.047 C 280.441 72.628 275.000 84.695 275.000 100.092 C 275.000 110.633 276.425 117.184 280.698 126.291 C 287.503 140.793 304.320 153.501 320.206 156.144 C 337.079 158.952 356.158 153.270 368.713 141.697 C 382.637 128.862 388.288 111.604 385.149 91.500 C 382.058 71.708 364.520 52.757 344.458 47.531 C 337.202 45.641 323.278 45.653 316.209 47.556 M 344.614 70.597 C 362.042 78.842 369.298 98.188 361.324 115.151 C 357.486 123.316 351.601 129.369 344.148 132.817 C 335.963 136.604 324.760 136.583 316.963 132.766 C 308.993 128.866 303.846 124.048 299.930 116.826 C 296.740 110.942 296.501 109.871 296.517 101.500 C 296.533 93.464 296.845 91.936 299.435 87.234 C 305.214 76.741 310.905 71.868 321.500 68.338 C 327.534 66.328 337.686 67.320 344.614 70.597 "/></g>
<g fill="#2D3E50FF" stroke="#2D3E50FF">
<path d="M 566.630 47.864 C 564.560 50.025 563.660 52.295 562.963 57.114 C 561.926 64.290 561.862 107.570 562.850 133.671 C 563.469 150.025 563.615 150.964 565.924 153.421 C 567.929 155.553 569.251 156.000 573.564 156.000 C 577.208 156.000 579.489 155.424 581.139 154.089 C 583.498 152.179 583.500 152.155 584.119 122.214 C 584.723 92.973 584.799 92.119 587.254 86.756 C 592.079 76.216 600.685 69.386 612.057 67.070 C 619.129 65.630 625.374 66.881 633.505 71.369 C 640.426 75.189 644.944 80.562 647.916 88.505 C 649.839 93.645 650.000 96.161 650.000 121.087 C 650.000 149.746 650.408 152.542 654.945 154.970 C 658.199 156.712 665.470 156.205 668.216 154.044 C 671.576 151.402 671.931 146.198 671.052 112.500 C 670.427 88.527 670.114 84.911 668.268 80.246 C 663.286 67.656 652.900 56.558 640.220 50.274 C 633.974 47.179 631.631 46.583 623.720 46.083 C 608.951 45.149 600.708 46.302 592.534 50.444 C 584.682 54.423 584.000 54.596 584.000 52.604 C 584.000 51.836 582.409 49.811 580.465 48.104 C 575.683 43.905 570.509 43.815 566.630 47.864 "/></g>
<g fill="#2D3E50FF" stroke="#2D3E50FF">
<path d="M 214.250 46.517 C 199.784 49.659 184.301 61.454 177.231 74.717 C 168.953 90.248 168.931 108.737 177.169 125.898 C 181.595 135.117 187.183 141.445 196.168 147.411 C 212.228 158.074 232.741 159.435 250.683 151.027 C 265.210 144.220 270.311 138.501 268.027 131.583 C 265.400 123.621 257.164 122.039 248.690 127.869 C 240.205 133.707 236.337 134.954 226.640 134.978 C 218.587 134.998 217.239 134.711 211.839 131.834 C 204.280 127.805 198.807 122.487 195.319 115.784 C 192.922 111.178 192.566 109.345 192.547 101.500 C 192.527 93.143 192.768 92.050 195.929 86.199 C 202.394 74.232 210.057 68.718 222.865 66.817 C 231.257 65.572 238.137 67.220 245.626 72.271 C 255.058 78.633 260.091 79.562 264.478 75.750 C 267.237 73.353 268.679 67.843 267.636 63.687 C 266.894 60.728 258.602 54.187 250.500 50.169 C 240.224 45.073 227.021 43.742 214.250 46.517 "/></g>
<g fill="#2D3E50FF" stroke="#2D3E50FF">
<path d="M 724.293 68.384 C 716.452 70.955 708.663 78.170 703.653 87.500 C 700.548 93.284 700.557 108.456 703.671 115.196 C 706.453 121.220 713.370 128.121 720.162 131.652 C 724.878 134.103 726.606 134.430 735.000 134.463 C 743.407 134.496 745.151 134.180 750.161 131.720 C 756.382 128.665 761.246 123.841 765.635 116.375 C 768.297 111.845 768.500 110.756 768.500 101.000 C 768.500 91.898 768.185 89.901 766.137 86.000 C 763.157 80.325 755.720 73.208 749.558 70.134 C 743.631 67.176 730.703 66.281 724.293 68.384 "/></g>
<g fill="#2D3E50FF" stroke="#2D3E50FF">
<path d="M 140.963 46.750 C 139.128 48.394 137.523 51.109 136.971 53.500 C 135.863 58.299 135.792 126.225 136.880 140.747 C 137.536 149.522 137.985 151.355 139.998 153.497 C 144.220 157.992 156.343 156.068 157.423 150.732 C 157.671 149.504 158.110 126.955 158.397 100.622 C 158.975 47.614 159.088 48.693 152.643 45.635 C 147.714 43.296 144.472 43.606 140.963 46.750 "/></g>
<g fill="#2D3E50FF" stroke="#2D3E50FF">
<path d="M 525.279 46.419 C 523.033 48.308 521.853 50.459 521.078 54.073 C 519.909 59.521 519.827 85.797 520.852 125.670 C 521.492 150.516 521.531 150.874 523.924 153.420 C 525.814 155.431 527.314 156.000 530.724 156.000 C 535.749 156.000 540.628 153.826 541.362 151.261 C 541.638 150.292 542.008 127.347 542.182 100.270 L 542.500 51.040 539.407 47.946 C 534.964 43.502 529.453 42.907 525.279 46.419 "/></g>
<g fill="#2D3E50FF" stroke="#2D3E50FF">
<path d="M 140.400 21.400 C 136.553 25.247 136.110 28.321 138.635 33.643 C 140.946 38.514 145.224 40.549 150.089 39.092 C 160.302 36.032 162.055 24.183 152.989 19.494 C 148.140 16.987 144.220 17.580 140.400 21.400 "/></g>
<g fill="#2D3E50FF" stroke="#2D3E50FF">
<path d="M 529.500 17.765 C 526.312 18.449 522.078 23.067 521.419 26.578 C 521.024 28.687 521.426 31.095 522.579 33.526 C 525.938 40.603 534.364 41.499 540.103 35.390 C 543.243 32.048 543.453 25.001 540.500 22.072 C 537.917 19.510 532.059 17.216 529.500 17.765 "/></g>
<g fill="#000000FF" stroke="#000000FF">
<path d="M 731.000 2.000 C 731.000 2.622 736.667 3.000 746.000 3.000 C 755.333 3.000 761.000 2.622 761.000 2.000 C 761.000 1.378 755.333 1.000 746.000 1.000 C 736.667 1.000 731.000 1.378 731.000 2.000 "/></g>
</svg>
