<?xml version="1.0" encoding="utf-8"?>
<!DOCTYPE svg PUBLIC "-//W3C//DTD SVG 20010904//EN" "http://www.w3.org/TR/2001/REC-SVG-20010904/DTD/svg10.dtd">
<svg version="1.0" xmlns="http://www.w3.org/2000/svg" width="1479pt" height="171pt" viewBox="0 0 1479 171" style="" preserveAspectRatio="xMidYMid meet">
<g fill="#000000FF" stroke="#000000FF">
<path d="M 676.223 2.557 C 674.036 4.088 674.000 4.487 674.000 26.890 C 674.000 39.417 673.745 49.921 673.434 50.232 C 673.123 50.544 670.552 49.273 667.722 47.409 C 659.499 41.993 653.939 40.500 642.000 40.500 C 624.553 40.500 613.734 45.732 608.300 56.799 L 605.500 62.500 605.500 86.000 C 605.500 108.580 605.593 109.705 607.870 114.742 C 613.031 126.160 622.847 131.195 641.095 131.785 C 654.674 132.225 658.244 131.437 667.223 126.021 C 670.890 123.810 674.140 122.000 674.445 122.000 C 674.750 122.000 675.000 123.714 675.000 125.809 C 675.000 127.904 675.631 130.481 676.403 131.536 C 677.569 133.132 678.285 133.286 680.653 132.453 L 683.500 131.452 683.757 68.272 L 684.015 5.092 681.819 3.046 C 679.184 0.591 679.046 0.579 676.223 2.557 M 654.000 52.042 C 659.393 53.233 661.839 54.355 668.750 58.810 L 674.000 62.194 674.000 86.004 L 674.000 109.814 669.250 113.768 C 663.107 118.883 659.830 120.498 652.545 121.999 C 645.579 123.435 638.140 122.770 630.282 120.008 C 618.355 115.816 617.051 112.591 617.022 87.218 C 616.999 66.645 617.630 63.168 622.298 58.169 C 627.989 52.073 641.933 49.378 654.000 52.042 "/></g>
<g fill="#000000FF" stroke="#000000FF">
<path d="M 1114.569 40.573 C 1113.177 41.966 1113.000 49.182 1113.000 104.536 C 1113.000 166.292 1113.021 166.941 1115.038 168.020 C 1118.227 169.727 1120.825 168.291 1121.963 164.192 C 1122.527 162.162 1122.991 152.025 1122.994 141.667 C 1122.997 131.308 1123.338 122.987 1123.750 123.174 C 1124.163 123.361 1127.200 124.919 1130.500 126.637 C 1139.004 131.062 1145.743 132.306 1158.562 131.816 C 1167.916 131.458 1170.224 131.020 1174.500 128.789 C 1180.825 125.488 1185.295 121.089 1188.001 115.499 C 1190.025 111.317 1190.108 109.915 1189.811 84.808 L 1189.500 58.500 1186.813 53.930 C 1181.873 45.527 1172.891 41.146 1158.807 40.270 C 1151.205 39.797 1149.007 40.074 1141.307 42.473 C 1136.463 43.983 1130.830 46.069 1128.790 47.109 C 1123.517 49.797 1122.470 49.511 1121.123 45.016 C 1119.675 40.182 1116.865 38.278 1114.569 40.573 M 1165.681 52.498 C 1171.979 54.368 1175.495 57.090 1178.028 62.055 C 1179.800 65.528 1180.000 67.990 1180.000 86.338 C 1180.000 108.197 1179.439 111.379 1174.824 115.702 C 1171.212 119.085 1165.334 121.129 1157.514 121.720 C 1148.764 122.382 1141.793 120.597 1130.250 114.738 L 1122.000 110.551 1122.000 87.479 L 1122.000 64.406 1125.750 60.860 C 1131.208 55.698 1135.283 53.132 1139.646 52.106 C 1145.886 50.640 1160.148 50.855 1165.681 52.498 "/></g>
<g fill="#000000FF" stroke="#000000FF">
<path d="M 530.156 41.471 C 521.385 43.464 515.603 46.477 511.621 51.130 C 506.191 57.473 505.498 61.602 505.514 87.500 L 505.529 110.500 508.317 116.000 C 513.925 127.060 522.587 131.137 541.872 131.792 C 560.205 132.415 571.133 129.594 578.351 122.377 C 584.589 116.138 586.000 109.503 586.000 86.398 C 586.000 62.773 584.661 56.756 577.900 49.995 C 574.051 46.146 571.510 44.608 566.239 42.935 C 557.441 40.144 539.247 39.405 530.156 41.471 M 560.118 52.001 C 565.278 53.456 570.066 56.952 572.446 61.003 C 574.263 64.097 574.539 66.514 574.836 81.983 C 575.285 105.326 574.750 109.164 570.371 114.011 C 565.374 119.542 560.176 121.000 545.448 121.000 C 531.843 121.000 526.395 119.675 521.641 115.211 C 516.480 110.365 516.000 107.881 516.000 86.000 C 516.000 61.261 516.831 58.613 526.203 53.478 C 532.237 50.172 550.766 49.365 560.118 52.001 "/></g>
<g fill="#000000FF" stroke="#000000FF">
<path d="M 1348.250 18.057 C 1347.712 30.627 1338.165 52.982 1324.573 73.500 C 1313.939 89.553 1313.354 90.690 1310.935 100.004 C 1308.990 107.495 1308.856 109.324 1309.804 115.465 C 1311.215 124.612 1316.654 135.251 1323.318 141.897 L 1328.500 147.066 1327.256 142.283 C 1323.671 128.495 1328.442 113.311 1343.527 90.500 C 1347.164 85.000 1351.796 77.466 1353.820 73.757 C 1355.844 70.048 1357.776 67.010 1358.113 67.007 C 1358.450 67.003 1359.532 69.562 1360.517 72.694 C 1362.507 79.021 1362.837 87.432 1361.572 99.576 C 1360.526 109.617 1361.762 113.954 1366.754 117.761 C 1369.921 120.177 1371.219 120.500 1377.753 120.500 C 1384.619 120.500 1385.262 120.683 1386.545 123.000 C 1389.182 127.763 1387.481 136.248 1382.173 144.813 C 1379.514 149.105 1379.532 149.095 1385.725 143.020 C 1399.809 129.205 1405.257 110.642 1400.095 94.057 C 1398.133 87.755 1390.246 73.421 1389.274 74.393 C 1388.973 74.693 1387.327 77.080 1385.614 79.696 C 1382.285 84.781 1377.875 87.275 1375.828 85.228 C 1374.946 84.346 1375.008 82.314 1376.083 76.783 C 1376.862 72.777 1377.452 65.675 1377.394 61.000 C 1377.306 53.989 1376.731 51.074 1374.112 44.356 C 1370.461 34.994 1367.700 30.900 1358.354 20.992 C 1348.948 11.022 1348.556 10.908 1348.250 18.057 "/></g>
<g fill="#000000FF" stroke="#000000FF">
<path d="M 933.389 40.423 C 918.725 43.770 910.000 52.731 910.000 64.445 C 910.000 68.127 910.449 69.248 912.451 70.560 C 916.139 72.977 918.770 71.627 919.993 66.690 C 922.622 56.081 926.214 52.819 937.337 50.943 C 950.120 48.787 962.052 51.111 968.348 56.983 L 972.442 60.803 972.835 71.401 C 973.104 78.693 972.883 82.000 972.125 82.000 C 971.518 82.000 967.755 81.126 963.761 80.059 C 942.904 74.482 925.840 77.559 916.071 88.657 C 911.848 93.455 910.000 98.581 910.000 105.500 C 910.000 116.354 914.383 123.094 924.765 128.205 C 931.256 131.400 931.837 131.500 943.979 131.498 C 957.383 131.496 960.327 130.648 968.683 124.386 C 972.658 121.407 973.409 121.408 974.770 124.395 C 976.031 127.163 987.080 131.352 991.715 130.820 C 994.140 130.541 994.540 130.017 994.809 126.766 C 995.103 123.224 994.886 122.918 990.594 120.833 C 987.461 119.311 985.750 117.721 985.034 115.668 C 984.425 113.922 984.000 102.086 984.000 86.888 C 984.000 63.534 983.810 60.566 982.002 55.736 C 977.862 44.671 969.014 40.089 950.500 39.423 C 943.312 39.165 937.382 39.512 933.389 40.423 M 966.250 90.610 L 973.000 92.418 973.000 101.646 L 973.000 110.873 966.250 115.357 C 955.519 122.486 946.674 124.355 936.500 121.644 C 928.897 119.618 925.695 117.582 923.239 113.212 C 917.440 102.893 923.276 92.431 936.734 89.021 C 942.193 87.638 958.416 88.511 966.250 90.610 "/></g>
<g fill="#000000FF" stroke="#000000FF">
<path d="M 736.500 41.005 C 721.056 43.806 710.457 52.148 707.923 63.500 C 706.167 71.362 707.116 109.506 709.183 114.140 C 711.828 120.071 717.486 125.493 724.238 128.567 C 729.970 131.176 731.690 131.451 744.561 131.815 C 764.076 132.367 775.444 129.254 784.146 120.976 C 787.379 117.900 788.000 116.658 788.000 113.262 C 788.000 110.493 787.500 109.022 786.418 108.607 C 783.967 107.666 783.788 107.741 777.973 112.145 C 774.963 114.424 770.025 117.460 767.000 118.891 C 761.924 121.291 760.459 121.492 748.000 121.496 C 735.207 121.500 734.199 121.352 728.749 118.676 C 720.158 114.457 718.000 110.239 718.000 97.662 L 718.000 88.000 750.309 88.000 C 776.680 88.000 782.975 87.738 784.559 86.577 C 786.230 85.351 786.496 83.927 786.473 76.327 C 786.422 59.391 779.091 47.592 765.817 43.083 C 758.588 40.627 744.208 39.608 736.500 41.005 M 752.732 51.001 C 760.515 52.012 766.199 54.410 769.688 58.153 C 773.016 61.724 775.954 69.007 775.978 73.750 L 776.000 78.000 747.000 78.000 L 718.000 78.000 718.004 71.750 C 718.008 65.377 720.118 60.178 723.877 57.286 C 727.214 54.717 734.118 51.813 738.732 51.037 C 745.221 49.946 744.619 49.947 752.732 51.001 "/></g>
<g fill="#000000FF" stroke="#000000FF">
<path d="M 231.669 41.046 C 223.444 42.427 217.235 45.201 211.874 49.891 C 203.366 57.334 203.047 58.653 203.022 86.554 C 203.000 110.395 203.023 110.653 205.567 115.759 C 208.804 122.254 213.241 126.169 220.668 129.083 C 225.432 130.952 228.972 131.448 239.996 131.790 C 259.073 132.381 269.448 129.644 278.713 121.576 C 283.327 117.558 285.229 112.185 282.991 109.489 C 281.001 107.092 278.897 107.770 272.000 113.031 C 262.771 120.071 258.039 121.475 243.500 121.489 C 229.864 121.502 223.028 119.769 218.776 115.223 C 214.102 110.226 213.000 106.760 213.000 97.050 L 213.000 88.000 245.943 88.000 C 278.852 88.000 278.888 87.998 280.443 85.777 C 282.822 82.381 282.491 70.541 279.785 62.271 C 277.404 54.995 271.472 47.847 265.066 44.534 C 257.630 40.689 242.937 39.155 231.669 41.046 M 254.162 52.134 C 263.462 54.175 270.933 63.557 270.978 73.250 L 271.000 78.000 242.000 78.000 L 213.000 78.000 213.000 72.338 C 213.000 55.557 230.539 46.948 254.162 52.134 "/></g>
<g fill="#000000FF" stroke="#000000FF">
<path d="M 332.043 41.139 C 320.635 43.030 310.082 50.068 305.995 58.511 C 303.977 62.679 303.888 64.116 304.186 87.698 L 304.500 112.500 307.317 117.292 C 313.447 127.722 324.101 132.007 343.855 131.988 C 361.951 131.971 371.863 128.931 380.358 120.790 C 383.841 117.453 385.000 115.601 385.000 113.371 C 385.000 108.071 381.136 106.361 377.279 109.954 C 373.880 113.122 364.813 118.599 360.500 120.091 C 354.404 122.199 333.849 121.971 327.411 119.723 C 317.695 116.331 314.000 110.084 314.000 97.050 L 314.000 88.000 346.845 88.000 C 385.451 88.000 383.000 88.744 383.000 77.029 C 383.000 65.916 380.004 57.083 374.199 51.083 C 368.536 45.230 364.937 43.306 356.164 41.447 C 348.763 39.878 340.297 39.770 332.043 41.139 M 355.162 52.112 C 364.485 54.203 371.933 63.572 371.978 73.265 L 372.000 78.031 343.250 77.765 L 314.500 77.500 314.200 72.309 C 313.255 55.980 331.749 46.861 355.162 52.112 "/></g>
<g fill="#000000FF" stroke="#000000FF">
<path d="M 1028.421 40.968 C 1027.278 41.430 1024.817 43.427 1022.951 45.404 C 1021.086 47.382 1019.245 49.000 1018.859 49.000 C 1018.474 49.000 1017.869 47.681 1017.515 46.069 C 1016.710 42.403 1014.783 40.751 1011.805 41.173 L 1009.500 41.500 1009.240 85.668 C 1009.009 124.836 1009.158 130.016 1010.561 131.418 C 1012.522 133.379 1015.020 133.437 1017.559 131.582 C 1019.401 130.236 1019.526 128.337 1020.000 94.466 L 1020.500 58.768 1024.350 55.441 C 1031.057 49.647 1039.138 49.581 1043.209 55.288 C 1045.480 58.472 1045.502 58.806 1045.786 94.251 L 1046.072 130.001 1048.395 131.523 C 1050.743 133.062 1053.824 132.634 1055.235 130.573 C 1055.639 129.983 1055.976 113.897 1055.985 94.827 L 1056.000 60.153 1058.488 57.196 C 1066.025 48.239 1079.279 49.142 1081.960 58.795 C 1082.569 60.990 1082.991 76.021 1082.994 95.668 C 1082.997 113.911 1083.273 129.548 1083.607 130.418 C 1084.512 132.778 1090.652 132.519 1091.965 130.066 C 1093.316 127.541 1093.370 56.776 1092.024 52.083 C 1089.827 44.424 1083.553 40.627 1073.000 40.573 C 1064.781 40.530 1059.670 42.481 1055.060 47.420 L 1052.619 50.034 1049.060 46.627 C 1047.102 44.753 1044.060 42.496 1042.300 41.610 C 1038.898 39.899 1031.868 39.573 1028.421 40.968 "/></g>
<g fill="#000000FF" stroke="#000000FF">
<path d="M 833.791 8.865 C 830.101 9.828 826.241 11.377 825.212 12.308 C 824.184 13.238 822.898 14.000 822.355 14.000 C 820.671 14.000 814.813 21.283 812.885 25.775 C 809.431 33.820 808.835 41.581 809.174 74.127 L 809.500 105.554 813.000 112.527 C 815.596 117.699 817.791 120.473 821.500 123.267 C 833.569 132.358 856.313 134.510 871.506 127.997 C 882.810 123.152 889.000 114.568 889.000 103.737 C 889.000 96.683 887.762 94.601 883.907 95.173 C 881.286 95.562 880.742 96.522 878.381 104.929 C 875.081 116.676 867.848 121.000 851.500 121.000 C 840.514 121.000 834.740 119.261 829.802 114.465 C 822.571 107.441 822.535 107.238 822.198 71.184 C 821.855 34.409 822.309 31.078 828.535 24.667 C 834.270 18.762 837.845 17.643 851.000 17.635 C 861.509 17.629 862.888 17.849 867.000 20.189 C 872.609 23.381 874.866 26.617 877.971 35.912 C 880.657 43.955 883.027 46.126 886.874 44.068 C 888.723 43.078 889.000 42.041 889.000 36.114 C 889.000 22.136 880.263 12.160 864.837 8.523 C 856.370 6.527 842.153 6.684 833.791 8.865 "/></g>
<g fill="#000000FF" stroke="#000000FF">
<path d="M 431.864 8.440 C 421.441 10.726 414.307 16.282 409.322 26.000 L 406.500 31.500 406.500 70.000 L 406.500 108.500 409.449 113.824 C 411.071 116.752 414.070 120.471 416.113 122.090 C 429.243 132.489 452.688 134.858 468.949 127.428 C 479.334 122.683 484.905 115.089 485.746 104.529 C 486.157 99.373 485.932 98.235 484.196 96.670 C 481.434 94.181 477.729 94.849 476.817 98.000 C 473.481 109.535 472.495 111.856 469.696 114.777 C 465.616 119.034 458.845 121.000 448.261 121.000 C 436.046 121.000 431.461 119.556 425.848 113.943 C 418.729 106.824 418.500 105.425 418.500 69.000 C 418.500 34.383 418.879 31.485 424.197 25.428 C 429.833 19.009 433.936 17.601 447.000 17.601 C 456.947 17.601 459.076 17.901 462.763 19.828 C 468.144 22.638 472.095 28.055 474.459 35.866 C 475.476 39.222 477.169 42.748 478.222 43.701 C 479.964 45.277 480.379 45.296 482.818 43.910 C 485.309 42.496 485.494 41.928 485.416 35.944 C 485.238 22.313 476.109 12.002 461.023 8.393 C 454.208 6.762 439.409 6.786 431.864 8.440 "/></g>
<g fill="#000000FF" stroke="#000000FF">
<path d="M 42.000 2.429 C 27.255 5.710 22.211 12.839 21.256 31.750 L 20.738 42.000 12.869 42.000 C 6.333 42.000 4.661 42.339 3.000 44.000 C 0.551 46.449 0.519 47.203 2.750 49.873 C 4.251 51.670 5.779 52.005 13.500 52.234 L 22.500 52.500 23.029 92.000 C 23.320 113.725 23.658 131.613 23.779 131.750 C 23.901 131.888 25.559 132.000 27.465 132.000 C 29.867 132.000 31.247 131.407 31.965 130.066 C 32.626 128.830 33.000 114.393 33.000 90.066 L 33.000 52.000 46.929 52.000 C 61.681 52.000 64.000 51.319 64.000 46.985 C 64.000 43.011 60.405 42.000 46.277 42.000 L 33.000 42.000 33.000 33.468 C 33.000 19.985 36.288 14.883 46.333 12.776 C 50.712 11.857 53.307 11.858 57.750 12.777 C 64.170 14.106 66.884 16.588 69.032 23.098 C 70.616 27.896 73.120 30.262 76.158 29.830 C 79.834 29.308 81.450 24.846 80.021 19.162 C 77.649 9.725 71.565 4.777 59.490 2.467 C 50.651 0.776 49.442 0.773 42.000 2.429 "/></g>
<g fill="#000000FF" stroke="#000000FF">
<path d="M 153.942 40.948 C 149.922 42.168 146.865 43.990 141.861 48.146 L 137.223 52.000 136.572 48.532 C 135.415 42.363 134.434 42.000 118.929 42.000 C 106.218 42.000 104.821 42.179 102.949 44.051 C 100.835 46.165 101.049 49.696 103.385 51.235 C 103.998 51.639 109.338 51.976 115.250 51.985 L 126.000 52.000 126.000 86.500 L 126.000 121.000 115.434 121.000 C 109.623 121.000 103.998 121.466 102.934 122.035 C 100.325 123.432 100.325 128.568 102.934 129.965 C 104.140 130.610 115.763 131.000 133.779 131.000 C 161.564 131.000 162.762 130.921 164.527 128.970 C 165.972 127.373 166.164 126.368 165.423 124.263 C 164.198 120.779 161.896 120.221 148.250 120.100 L 137.000 120.000 137.000 92.889 L 137.000 65.778 141.051 60.939 C 147.978 52.665 155.939 49.129 163.249 51.077 C 167.158 52.119 169.837 55.854 171.438 62.494 C 172.360 66.313 173.773 68.000 176.051 68.000 C 183.173 68.000 182.349 52.174 174.868 45.298 C 169.828 40.664 160.955 38.820 153.942 40.948 "/></g>
<g fill="#000000FF" stroke="#000000FF">
<path d="M 1433.223 2.557 C 1432.000 3.413 1431.000 4.773 1431.000 5.579 C 1431.000 6.385 1434.361 10.639 1438.469 15.031 C 1451.665 29.142 1458.476 40.963 1462.490 56.721 C 1466.033 70.625 1466.060 91.145 1462.556 105.224 C 1458.278 122.410 1450.525 136.507 1438.601 148.779 C 1430.971 156.632 1429.813 159.258 1432.708 162.153 C 1435.702 165.147 1439.060 163.999 1445.733 157.704 C 1457.147 146.934 1466.740 131.498 1471.338 116.500 C 1474.750 105.372 1474.887 104.621 1476.009 90.893 C 1478.222 63.800 1473.305 43.388 1459.975 24.335 C 1453.617 15.248 1444.057 5.070 1439.878 2.938 C 1435.331 0.618 1435.941 0.653 1433.223 2.557 "/></g>
<g fill="#000000FF" stroke="#000000FF">
<path d="M 1272.500 2.651 C 1268.225 4.890 1259.670 13.411 1254.077 21.000 C 1239.497 40.786 1233.965 60.103 1235.405 86.205 C 1236.190 100.429 1237.308 107.047 1240.690 117.500 C 1245.143 131.261 1252.978 144.327 1263.207 155.048 C 1272.029 164.295 1276.571 166.110 1279.542 161.576 C 1280.963 159.407 1280.973 158.855 1279.632 156.326 C 1278.808 154.772 1275.618 151.059 1272.543 148.075 C 1265.910 141.638 1257.482 129.056 1253.735 120.000 C 1248.578 107.534 1246.684 96.978 1246.647 80.500 C 1246.619 67.806 1246.973 64.193 1248.949 57.000 C 1253.508 40.410 1259.039 30.816 1272.874 15.508 C 1277.343 10.562 1281.000 5.975 1281.000 5.314 C 1281.000 4.200 1277.218 0.950 1276.027 1.040 C 1275.737 1.062 1274.150 1.787 1272.500 2.651 "/></g>
</svg>
