<?xml version="1.0" encoding="utf-8"?>
<!DOCTYPE svg PUBLIC "-//W3C//DTD SVG 20010904//EN" "http://www.w3.org/TR/2001/REC-SVG-20010904/DTD/svg10.dtd">
<svg version="1.0" xmlns="http://www.w3.org/2000/svg" width="782pt" height="312pt" viewBox="0 0 782 312" style="" preserveAspectRatio="xMidYMid meet">
<g fill="#0F1029FF" stroke="#0F1029FF">
<path d="M 142.473 73.044 C 142.148 73.570 142.246 74.003 142.691 74.006 C 143.136 74.010 142.263 74.658 140.750 75.447 C 139.238 76.236 137.993 76.571 137.985 76.191 C 137.976 75.811 137.639 75.995 137.235 76.601 C 135.847 78.679 127.925 83.072 126.808 82.382 C 126.078 81.930 125.975 82.150 126.510 83.015 C 127.103 83.975 126.873 84.165 125.676 83.706 C 124.657 83.315 124.115 83.537 124.262 84.286 C 124.396 84.969 123.691 85.361 122.650 85.183 C 121.527 84.991 121.062 85.291 121.466 85.945 C 121.866 86.592 120.893 87.271 119.032 87.644 C 117.326 87.985 116.168 88.502 116.459 88.792 C 117.374 89.707 113.054 92.151 111.844 91.403 C 111.077 90.930 110.965 91.135 111.510 92.015 C 112.109 92.985 111.868 93.164 110.612 92.681 C 109.643 92.309 109.148 92.431 109.476 92.961 C 110.247 94.209 106.272 96.286 104.825 95.392 C 104.078 94.930 103.970 95.143 104.510 96.015 C 105.103 96.975 104.873 97.165 103.676 96.706 C 102.657 96.315 102.115 96.537 102.262 97.286 C 102.393 97.954 101.678 98.503 100.674 98.508 C 99.646 98.512 99.209 98.909 99.674 99.417 C 100.153 99.939 99.764 100.055 98.750 99.691 C 97.558 99.263 97.000 99.565 97.000 100.638 C 97.000 101.652 96.446 102.001 95.448 101.618 C 94.434 101.229 94.144 101.425 94.612 102.181 C 95.089 102.953 94.777 103.128 93.676 102.706 C 92.657 102.315 92.115 102.537 92.262 103.286 C 92.393 103.954 91.678 104.503 90.674 104.508 C 89.646 104.512 89.209 104.909 89.674 105.417 C 90.153 105.939 89.764 106.055 88.750 105.691 C 87.558 105.263 87.000 105.565 87.000 106.638 C 87.000 107.652 86.446 108.001 85.448 107.618 C 84.558 107.277 84.157 107.445 84.507 108.011 C 84.843 108.555 84.416 109.000 83.559 109.000 C 82.702 109.000 82.000 109.498 82.000 110.107 C 82.000 110.716 81.302 110.946 80.448 110.618 C 79.558 110.277 79.157 110.445 79.507 111.011 C 79.843 111.555 79.472 112.000 78.681 112.000 C 77.891 112.000 76.668 112.695 75.962 113.546 C 75.257 114.396 74.053 114.851 73.288 114.557 C 72.522 114.263 72.152 114.437 72.464 114.942 C 72.777 115.448 72.575 116.144 72.016 116.490 C 71.357 116.897 71.000 130.253 71.000 154.488 C 71.000 187.127 71.199 192.056 72.571 193.429 C 73.436 194.293 73.998 195.052 73.821 195.115 C 73.645 195.179 73.950 195.291 74.500 195.365 C 76.231 195.598 84.000 200.331 84.000 201.153 C 84.000 201.584 84.675 201.678 85.500 201.362 C 86.325 201.045 87.000 201.284 87.000 201.893 C 87.000 202.502 87.655 203.000 88.455 203.000 C 89.255 203.000 90.955 204.046 92.233 205.324 C 93.511 206.602 95.039 207.487 95.628 207.291 C 96.218 207.094 97.272 207.623 97.972 208.467 C 98.672 209.310 99.865 210.000 100.622 210.000 C 101.380 210.000 102.000 210.401 102.000 210.892 C 102.000 211.382 103.125 212.066 104.500 212.411 C 105.875 212.756 107.000 213.480 107.000 214.019 C 107.000 214.559 107.702 215.000 108.559 215.000 C 109.483 215.000 109.827 215.470 109.405 216.155 C 108.963 216.869 109.130 217.038 109.843 216.597 C 111.199 215.759 117.123 218.993 116.394 220.172 C 116.120 220.615 116.594 220.709 117.448 220.382 C 118.468 219.990 119.000 220.357 119.000 221.452 C 119.000 222.368 119.450 222.840 120.000 222.500 C 120.550 222.160 121.563 222.239 122.250 222.676 C 123.250 223.311 123.250 223.497 122.250 223.610 C 120.681 223.786 122.691 224.485 125.809 224.848 C 126.529 224.931 126.874 225.395 126.575 225.878 C 126.277 226.361 127.447 227.039 129.176 227.385 C 130.905 227.731 131.988 228.345 131.584 228.749 C 131.179 229.154 131.445 229.488 132.174 229.492 C 132.903 229.497 133.500 229.949 133.500 230.499 C 133.500 231.048 134.175 231.542 135.000 231.596 C 135.825 231.651 136.500 231.816 136.500 231.963 C 136.500 232.110 137.057 232.291 137.739 232.365 C 138.420 232.439 139.095 232.941 139.239 233.481 C 139.382 234.020 139.950 234.514 140.500 234.579 C 141.050 234.643 141.275 234.799 141.000 234.925 C 140.725 235.051 141.920 235.232 143.655 235.327 C 145.390 235.422 146.553 235.086 146.241 234.580 C 145.928 234.074 146.421 233.947 147.336 234.299 C 148.454 234.728 149.000 234.420 149.000 233.362 C 149.000 232.348 149.554 231.999 150.552 232.382 C 151.566 232.771 151.856 232.575 151.388 231.819 C 150.910 231.045 151.225 230.872 152.336 231.299 C 153.454 231.728 154.000 231.420 154.000 230.362 C 154.000 229.348 154.554 228.999 155.552 229.382 C 156.442 229.723 156.843 229.555 156.493 228.989 C 156.157 228.445 156.528 228.000 157.319 228.000 C 158.109 228.000 159.332 227.305 160.038 226.454 C 160.743 225.604 161.947 225.149 162.712 225.443 C 163.478 225.737 163.829 225.532 163.493 224.989 C 163.157 224.445 163.359 223.944 163.941 223.875 C 165.772 223.659 167.030 223.255 166.277 223.125 C 165.880 223.056 166.556 222.299 167.779 221.442 C 169.003 220.585 170.522 220.205 171.156 220.597 C 171.870 221.038 172.037 220.869 171.595 220.155 C 171.173 219.470 171.517 219.000 172.441 219.000 C 173.298 219.000 174.000 218.502 174.000 217.893 C 174.000 217.284 174.698 217.054 175.552 217.382 C 176.566 217.771 176.856 217.575 176.388 216.819 C 175.910 216.045 176.225 215.872 177.336 216.299 C 178.251 216.650 179.000 216.501 179.000 215.969 C 179.000 215.436 179.927 215.000 181.059 215.000 C 182.191 215.000 182.891 214.633 182.613 214.183 C 182.336 213.734 183.434 212.584 185.054 211.627 C 186.674 210.670 188.000 210.237 188.000 210.666 C 188.000 211.094 188.701 210.445 189.557 209.223 C 190.413 208.000 191.731 207.000 192.485 207.000 C 193.240 207.000 194.576 206.281 195.454 205.403 C 196.333 204.524 197.738 204.069 198.578 204.391 C 199.417 204.714 199.858 204.579 199.558 204.093 C 199.117 203.381 201.745 201.632 202.769 201.956 C 202.918 202.003 204.027 201.121 205.234 199.996 C 206.442 198.871 208.031 198.182 208.767 198.464 C 209.502 198.746 209.858 198.579 209.558 198.093 C 209.054 197.279 211.120 195.879 213.500 195.423 C 214.050 195.317 214.355 195.179 214.179 195.115 C 214.002 195.052 214.569 194.289 215.438 193.419 C 216.843 192.014 216.990 186.475 216.760 143.683 L 216.500 95.528 211.756 92.424 C 209.147 90.717 207.310 89.023 207.673 88.660 C 208.036 88.297 207.133 88.000 205.667 88.000 C 202.254 88.000 201.431 88.292 201.791 89.373 C 201.951 89.853 201.365 89.970 200.489 89.634 C 199.613 89.298 199.157 89.445 199.476 89.961 C 200.247 91.209 196.272 93.286 194.825 92.392 C 194.148 91.973 193.966 92.136 194.373 92.795 C 195.219 94.163 191.381 96.353 189.825 95.392 C 189.170 94.987 188.965 95.135 189.340 95.741 C 189.697 96.318 189.331 97.043 188.526 97.352 C 187.722 97.660 186.794 97.475 186.463 96.940 C 186.132 96.405 185.446 96.224 184.939 96.538 C 184.431 96.852 183.225 96.648 182.258 96.085 C 181.291 95.521 180.725 94.995 181.000 94.915 C 181.275 94.835 180.826 94.709 180.003 94.635 C 179.179 94.561 178.504 93.900 178.503 93.167 C 178.501 92.433 178.201 92.132 177.836 92.498 C 176.876 93.457 172.833 91.079 173.524 89.961 C 173.852 89.431 173.357 89.309 172.388 89.681 C 171.224 90.128 170.904 89.964 171.395 89.170 C 171.860 88.417 171.362 88.000 170.000 88.000 C 168.654 88.000 168.142 87.579 168.595 86.845 C 169.033 86.138 168.870 85.962 168.175 86.392 C 166.728 87.286 162.753 85.209 163.524 83.961 C 163.852 83.431 163.357 83.309 162.388 83.681 C 161.123 84.167 160.890 83.987 161.500 83.000 C 162.081 82.059 161.894 81.827 160.872 82.219 C 160.071 82.526 158.562 82.153 157.517 81.389 C 156.472 80.625 155.816 79.948 156.059 79.885 C 156.301 79.821 156.050 79.704 155.500 79.623 C 153.263 79.297 147.971 75.855 148.469 75.051 C 148.762 74.575 148.032 74.440 146.845 74.751 C 145.475 75.109 144.925 74.931 145.338 74.262 C 145.696 73.683 145.331 72.957 144.526 72.648 C 143.722 72.340 142.798 72.518 142.473 73.044 M 163.122 162.250 C 173.260 168.438 187.955 177.316 195.777 181.980 C 203.600 186.644 209.984 190.919 209.966 191.480 C 209.927 192.612 145.737 228.500 143.750 228.500 C 141.799 228.500 79.056 192.625 79.027 191.493 C 79.012 190.939 80.913 189.318 83.250 187.890 C 88.575 184.639 119.188 165.665 132.500 157.365 C 138.000 153.936 142.993 151.101 143.595 151.065 C 144.198 151.029 152.985 156.063 163.122 162.250 M 167.000 113.474 L 186.199 124.948 189.349 123.331 C 191.082 122.442 194.871 120.204 197.769 118.357 C 200.668 116.511 203.531 115.000 204.133 115.000 C 204.735 115.000 206.976 115.983 209.114 117.184 L 213.000 119.368 213.000 153.184 C 213.000 171.783 212.727 187.000 212.393 187.000 C 212.058 187.000 201.596 180.981 189.143 173.624 C 176.689 166.267 162.140 157.718 156.811 154.627 C 151.482 151.536 146.769 148.442 146.337 147.753 C 145.636 146.634 145.749 127.928 146.462 127.208 C 147.157 126.505 159.068 134.271 160.935 136.645 C 162.071 138.089 163.000 138.707 163.000 138.018 C 163.000 137.297 163.777 136.970 164.833 137.246 C 165.945 137.537 166.667 137.192 166.667 136.371 C 166.667 135.627 162.017 132.265 156.333 128.901 C 150.650 125.538 145.961 122.384 145.913 121.893 C 145.865 121.402 145.826 116.950 145.826 112.000 C 145.826 101.409 145.763 102.000 146.901 102.000 C 147.396 102.000 156.441 107.163 167.000 113.474 M 142.786 112.224 L 143.072 121.924 139.286 124.347 C 135.855 126.543 93.027 151.923 81.912 158.348 C 79.389 159.807 76.786 161.000 76.127 161.000 C 75.257 161.000 75.008 158.204 75.215 150.765 L 75.500 140.531 106.670 122.015 C 123.814 111.832 138.192 103.147 138.622 102.715 C 139.051 102.284 140.099 102.064 140.951 102.227 C 142.199 102.466 142.556 104.411 142.786 112.224 M 142.785 137.253 L 143.071 146.844 139.785 149.294 C 137.978 150.642 131.550 154.562 125.500 158.006 C 119.450 161.450 106.344 169.149 96.376 175.117 C 86.408 181.084 77.504 186.253 76.591 186.604 C 75.096 187.177 74.958 186.164 75.215 176.467 L 75.500 165.693 95.000 154.259 C 105.725 147.970 120.350 139.305 127.500 135.003 C 134.650 130.701 140.950 127.290 141.500 127.422 C 142.055 127.555 142.627 131.930 142.785 137.253 M 142.000 88.952 L 142.000 96.904 137.570 99.952 C 135.133 101.628 132.933 103.000 132.681 103.000 C 132.014 103.000 79.677 134.039 78.550 135.103 C 78.028 135.597 76.997 136.000 76.260 136.000 C 75.224 136.000 74.985 134.131 75.210 127.791 L 75.500 119.581 108.000 100.307 C 125.875 89.705 140.838 81.025 141.250 81.016 C 141.663 81.007 142.000 84.578 142.000 88.952 M 173.653 96.516 C 187.319 104.576 198.892 111.547 199.372 112.007 C 200.263 112.862 191.479 118.946 189.305 118.981 C 188.593 118.992 187.986 117.150 187.805 114.422 C 187.515 110.067 187.256 109.709 182.500 107.087 C 179.750 105.571 176.497 103.704 175.272 102.938 C 173.274 101.690 172.500 101.840 167.772 104.389 L 162.500 107.232 154.500 102.262 L 146.500 97.292 146.208 89.023 C 145.964 82.144 146.158 80.847 147.360 81.308 C 148.155 81.613 159.986 88.457 173.653 96.516 M 209.268 96.536 L 213.000 99.072 213.000 107.036 C 213.000 111.416 212.763 115.000 212.473 115.000 C 211.414 115.000 191.001 102.763 191.022 102.141 C 191.050 101.320 203.167 94.018 204.518 94.008 C 205.078 94.003 207.215 95.141 209.268 96.536 M 177.082 105.543 C 178.723 106.391 179.818 107.485 179.516 107.973 C 179.214 108.462 179.494 109.187 180.138 109.585 C 180.912 110.063 181.040 109.873 180.515 109.025 C 179.983 108.163 180.179 107.907 181.111 108.245 C 181.875 108.523 182.393 109.240 182.262 109.839 C 182.131 110.438 182.612 110.702 183.332 110.426 C 184.285 110.060 184.701 111.291 184.870 114.974 C 185.043 118.765 184.713 120.173 183.549 120.620 C 181.798 121.291 169.361 113.942 169.741 112.460 C 169.874 111.944 169.424 111.472 168.741 111.413 C 168.059 111.353 167.725 111.229 168.000 111.137 C 168.275 111.045 167.838 110.550 167.028 110.038 C 165.759 109.236 165.785 109.020 167.215 108.471 C 168.127 108.121 168.644 107.236 168.363 106.505 C 167.894 105.282 169.514 104.409 172.800 104.116 C 173.514 104.052 175.442 104.694 177.082 105.543 "/></g>
<g fill="#D41718FF" stroke="#D41718FF">
<path d="M 112.494 171.051 C 95.447 181.529 81.153 190.449 80.728 190.873 C 80.304 191.296 94.297 199.810 111.824 209.791 L 143.691 227.939 175.895 210.058 C 193.607 200.224 208.114 191.849 208.134 191.448 C 208.153 191.047 203.519 187.891 197.835 184.435 C 172.567 169.070 144.147 152.000 143.832 152.000 C 143.643 152.000 129.541 160.573 112.494 171.051 "/></g>
<g fill="#000000FF" stroke="#000000FF">
<path d="M 342.000 146.000 L 342.000 202.000 354.479 202.000 L 366.958 202.000 367.229 182.250 L 367.500 162.500 380.762 182.250 L 394.025 202.000 407.512 202.000 C 414.931 202.000 421.000 201.767 421.000 201.481 C 421.000 201.196 415.233 192.309 408.185 181.731 C 401.136 171.154 395.098 162.041 394.767 161.479 C 394.436 160.918 399.744 153.268 406.563 144.479 C 413.382 135.691 418.970 128.163 418.980 127.750 C 418.991 127.338 412.711 127.000 405.024 127.000 L 391.049 127.000 379.274 142.207 L 367.500 157.415 367.237 123.707 L 366.973 90.000 354.487 90.000 L 342.000 90.000 342.000 146.000 "/></g>
<g fill="#000000FF" stroke="#000000FF">
<path d="M 279.718 103.092 C 274.493 104.322 270.577 106.484 265.868 110.738 C 259.719 116.294 257.629 121.138 257.559 130.000 C 257.508 136.497 257.894 138.212 260.449 142.824 C 264.458 150.062 268.757 153.238 286.399 162.000 L 301.500 169.500 301.803 173.656 C 302.206 179.183 299.717 181.000 291.745 181.000 C 284.388 181.000 280.269 179.267 274.253 173.640 L 269.464 169.160 261.582 175.063 C 257.247 178.310 253.500 181.167 253.254 181.413 C 252.151 182.516 259.577 191.303 264.733 194.995 C 273.197 201.056 281.696 203.312 294.310 202.845 C 302.937 202.526 305.393 202.042 310.106 199.737 C 317.128 196.301 322.676 190.959 325.337 185.070 C 328.253 178.615 328.209 167.060 325.247 161.387 C 321.946 155.066 314.194 148.771 304.320 144.394 C 285.386 136.000 283.533 134.839 283.180 131.156 C 282.708 126.238 285.182 124.000 291.090 124.000 C 297.460 124.000 299.778 125.007 304.427 129.798 L 308.341 133.830 316.170 127.870 C 320.477 124.592 324.000 121.323 324.000 120.605 C 324.000 118.082 317.868 110.872 313.209 107.917 C 310.619 106.274 306.281 104.271 303.568 103.465 C 298.198 101.870 285.736 101.674 279.718 103.092 "/></g>
<g fill="#000000FF" stroke="#000000FF">
<path d="M 601.208 151.750 C 601.544 174.680 601.738 176.921 603.846 182.221 C 606.728 189.466 613.331 196.328 620.780 199.819 C 625.898 202.218 627.658 202.500 637.500 202.500 C 647.290 202.500 649.105 202.213 654.000 199.887 C 664.076 195.100 670.766 186.129 672.911 174.526 C 673.510 171.285 674.000 159.265 674.000 147.816 L 674.000 127.000 661.500 127.000 L 649.000 127.000 649.000 148.532 C 649.000 171.660 648.391 175.212 643.883 178.369 C 640.021 181.075 633.578 180.488 629.766 177.084 L 626.500 174.168 626.199 150.584 L 625.897 127.000 613.372 127.000 L 600.846 127.000 601.208 151.750 "/></g>
<g fill="#000000FF" stroke="#000000FF">
<path d="M 508.000 127.467 C 508.000 127.757 516.435 144.870 526.744 165.497 L 545.488 203.000 549.741 203.000 L 553.995 203.000 572.497 166.005 C 582.674 145.658 591.000 128.558 591.000 128.005 C 591.000 127.384 586.098 127.000 578.159 127.000 L 565.318 127.000 558.067 143.250 C 554.079 152.188 550.520 159.816 550.157 160.201 C 549.794 160.587 546.099 153.387 541.944 144.201 L 534.391 127.500 521.196 127.221 C 513.938 127.068 508.000 127.178 508.000 127.467 "/></g>
<g fill="#000000FF" stroke="#000000FF">
<path d="M 691.000 146.000 L 691.000 202.000 703.500 202.000 L 716.000 202.000 716.000 146.000 L 716.000 90.000 703.500 90.000 L 691.000 90.000 691.000 146.000 "/></g>
<g fill="#000000FF" stroke="#000000FF">
<path d="M 474.000 146.000 L 474.000 202.000 486.500 202.000 L 499.000 202.000 499.000 146.000 L 499.000 90.000 486.500 90.000 L 474.000 90.000 474.000 146.000 "/></g>
<g fill="#FF3034FF" stroke="#FF3034FF">
<path d="M 145.373 103.469 C 145.032 104.359 145.034 105.367 145.376 105.710 C 145.719 106.053 146.000 105.583 146.000 104.667 C 146.000 103.716 146.752 103.034 147.750 103.079 C 148.713 103.122 149.050 103.346 148.500 103.576 C 147.904 103.826 147.629 107.607 147.819 112.928 C 148.120 121.341 148.294 121.965 150.819 123.654 C 152.294 124.641 152.938 125.516 152.250 125.599 C 150.556 125.804 151.073 126.118 153.573 126.403 C 154.712 126.533 158.371 128.296 161.703 130.320 C 165.035 132.344 168.032 134.000 168.361 134.000 C 168.691 134.000 171.531 135.688 174.672 137.750 C 178.191 140.061 179.465 141.308 177.991 141.000 C 175.800 140.542 175.763 140.593 177.550 141.615 C 178.623 142.228 180.062 142.528 180.748 142.282 C 182.269 141.737 189.000 145.752 189.000 147.204 C 189.000 147.805 188.261 147.673 187.250 146.890 C 185.923 145.862 185.977 146.093 187.474 147.844 L 189.449 150.153 186.974 152.054 C 183.600 154.647 181.883 154.474 185.000 151.855 C 187.274 149.945 187.290 149.879 185.184 151.127 C 183.910 151.882 182.859 152.950 182.849 153.500 C 182.813 155.394 180.750 157.000 178.353 157.000 C 175.598 157.000 173.947 153.779 173.609 147.740 C 173.493 145.672 173.084 143.984 172.699 143.990 C 172.315 143.995 172.113 144.069 172.250 144.152 C 172.388 144.236 172.050 144.360 171.500 144.429 C 170.950 144.497 169.904 144.991 169.176 145.526 C 168.157 146.275 168.233 146.384 169.503 146.000 C 170.468 145.708 170.188 146.220 168.827 147.234 C 167.547 148.188 166.638 148.450 166.806 147.815 C 167.007 147.061 166.559 147.121 165.514 147.988 C 163.412 149.733 162.697 148.815 160.145 141.097 C 158.010 134.640 158.427 133.434 160.759 139.322 L 162.018 142.500 161.431 139.500 C 161.108 137.850 160.092 135.694 159.172 134.710 C 158.252 133.725 157.613 133.387 157.750 133.960 C 158.099 135.414 157.603 135.288 153.559 132.902 C 151.603 131.748 150.251 130.403 150.553 129.914 C 150.856 129.424 150.406 129.291 149.552 129.618 C 148.310 130.095 148.000 131.992 148.000 139.107 C 148.000 144.934 147.630 147.914 146.926 147.750 C 146.335 147.613 146.646 148.175 147.618 149.000 C 148.595 149.830 149.048 149.942 148.633 149.250 C 147.503 147.370 148.208 147.644 155.916 152.089 C 159.817 154.338 162.774 156.557 162.488 157.020 C 162.202 157.483 162.494 158.187 163.138 158.585 C 163.869 159.037 164.041 158.876 163.595 158.155 C 162.636 156.602 163.521 156.701 167.082 158.543 C 168.811 159.436 169.776 160.553 169.378 161.197 C 168.962 161.871 169.146 162.028 169.845 161.595 C 170.480 161.203 171.563 161.239 172.250 161.676 C 173.250 162.311 173.250 162.497 172.250 162.610 C 171.046 162.745 171.375 162.969 173.500 163.463 C 174.050 163.591 174.500 163.816 174.500 163.963 C 174.500 164.110 175.174 164.291 175.997 164.365 C 176.821 164.439 177.496 165.100 177.497 165.833 C 177.499 166.567 177.796 166.871 178.157 166.510 C 179.120 165.547 185.170 168.916 184.481 170.031 C 184.159 170.551 184.482 170.763 185.198 170.500 C 185.914 170.238 188.160 171.031 190.189 172.262 C 192.217 173.493 196.492 176.069 199.689 177.986 C 202.885 179.903 204.938 181.534 204.250 181.611 C 202.681 181.786 204.693 182.485 207.809 182.848 C 208.529 182.931 208.859 183.419 208.543 183.931 C 208.226 184.443 208.494 185.187 209.138 185.585 C 209.869 186.037 210.041 185.876 209.595 185.155 C 209.203 184.520 209.359 184.000 209.941 184.000 C 210.664 184.000 211.000 173.919 211.000 152.216 L 211.000 120.431 208.096 118.716 C 206.498 117.772 204.361 116.955 203.346 116.900 C 201.970 116.826 202.136 116.584 204.000 115.949 L 206.500 115.097 204.000 115.322 C 202.625 115.446 201.609 116.089 201.743 116.752 C 201.975 117.906 196.898 121.158 195.280 120.892 C 194.851 120.821 194.163 120.873 193.750 121.007 C 193.338 121.140 193.563 121.322 194.250 121.410 C 194.938 121.499 194.478 122.138 193.229 122.832 C 191.980 123.525 190.609 123.876 190.182 123.612 C 189.754 123.348 188.751 123.595 187.952 124.160 C 186.781 124.990 186.848 125.076 188.302 124.606 C 189.359 124.264 189.851 124.432 189.493 125.011 C 188.701 126.293 184.299 126.293 183.507 125.011 C 183.149 124.432 183.641 124.264 184.698 124.606 C 186.152 125.076 186.219 124.990 185.048 124.160 C 184.249 123.595 183.246 123.348 182.818 123.612 C 182.391 123.876 181.020 123.525 179.771 122.832 C 178.522 122.138 178.063 121.499 178.750 121.410 C 179.438 121.322 179.663 121.140 179.250 121.007 C 178.838 120.873 178.149 120.821 177.720 120.892 C 175.951 121.183 170.976 117.847 171.622 116.803 C 172.023 116.154 171.857 115.971 171.223 116.362 C 170.009 117.112 163.000 114.089 163.000 112.815 C 163.000 112.367 163.540 112.113 164.200 112.250 C 164.859 112.388 164.355 111.893 163.079 111.150 C 161.538 110.254 161.004 110.197 161.488 110.981 C 161.889 111.630 159.356 110.618 155.859 108.732 C 152.361 106.846 149.500 104.678 149.500 103.915 C 149.500 101.916 146.110 101.550 145.373 103.469 "/></g>
<g fill="#000000FF" stroke="#000000FF">
<path d="M 431.000 164.500 L 431.000 202.000 443.500 202.000 L 456.000 202.000 456.000 164.500 L 456.000 127.000 443.500 127.000 L 431.000 127.000 431.000 164.500 "/></g>
<g fill="#FF3034FF" stroke="#FF3034FF">
<path d="M 139.540 127.936 C 139.153 128.562 139.515 128.740 140.448 128.382 C 141.786 127.868 142.000 129.141 142.000 137.593 C 142.000 144.633 141.694 147.094 140.917 146.317 C 140.266 145.666 139.967 142.214 140.167 137.666 C 140.455 131.128 140.261 130.035 138.749 129.642 C 137.785 129.391 137.235 129.572 137.527 130.043 C 138.261 131.231 134.217 133.252 132.825 132.392 C 132.145 131.972 131.966 132.136 132.378 132.803 C 133.156 134.061 127.462 137.404 126.040 136.525 C 125.544 136.218 124.813 136.494 124.415 137.138 C 123.932 137.919 124.127 138.039 125.000 137.500 C 125.892 136.949 126.068 137.080 125.553 137.914 C 125.138 138.586 124.145 138.886 123.347 138.580 C 122.549 138.273 122.157 138.445 122.476 138.961 C 123.247 140.209 119.272 142.286 117.825 141.392 C 117.145 140.972 116.966 141.136 117.378 141.803 C 117.776 142.447 116.811 143.564 115.082 144.457 C 111.521 146.299 110.636 146.398 111.595 144.845 C 112.041 144.124 111.869 143.963 111.138 144.415 C 110.494 144.813 110.212 145.535 110.512 146.019 C 110.811 146.503 110.173 147.372 109.094 147.950 C 106.543 149.315 105.709 149.280 106.595 147.845 C 107.041 147.124 106.869 146.963 106.138 147.415 C 105.494 147.813 105.212 148.535 105.512 149.019 C 105.811 149.503 105.173 150.372 104.094 150.950 C 101.543 152.315 100.709 152.280 101.595 150.845 C 102.041 150.124 101.869 149.963 101.138 150.415 C 100.494 150.813 100.212 151.535 100.512 152.019 C 100.811 152.503 100.173 153.372 99.094 153.950 C 96.543 155.315 95.709 155.280 96.595 153.845 C 97.041 153.124 96.869 152.963 96.138 153.415 C 95.494 153.813 95.199 154.513 95.482 154.971 C 96.216 156.158 88.995 160.212 87.304 159.563 C 86.415 159.222 86.160 159.450 86.612 160.181 C 87.081 160.941 86.788 161.133 85.762 160.739 C 84.900 160.408 83.889 160.444 83.514 160.819 C 83.140 161.194 83.433 161.503 84.167 161.507 C 84.900 161.511 84.387 162.299 83.027 163.257 C 80.258 165.210 78.876 165.487 79.250 164.016 C 79.387 163.474 78.488 163.725 77.250 164.572 C 75.159 166.005 75.000 166.850 75.000 176.557 C 75.000 183.240 75.381 187.000 76.059 187.000 C 76.641 187.000 76.875 186.606 76.577 186.125 C 75.827 184.912 91.813 175.766 93.193 176.619 C 93.853 177.027 94.030 176.858 93.627 176.205 C 92.781 174.837 96.619 172.647 98.175 173.608 C 98.852 174.027 99.034 173.864 98.627 173.205 C 97.781 171.837 101.619 169.647 103.175 170.608 C 103.855 171.028 104.034 170.864 103.622 170.197 C 102.976 169.153 107.951 165.817 109.720 166.108 C 110.149 166.179 110.838 166.127 111.250 165.993 C 111.663 165.860 111.438 165.678 110.750 165.590 C 110.063 165.501 110.551 164.846 111.836 164.134 C 113.120 163.421 114.470 163.137 114.836 163.502 C 115.201 163.868 115.500 163.604 115.500 162.917 C 115.500 162.229 116.125 161.458 116.889 161.204 C 117.815 160.895 118.014 161.169 117.485 162.025 C 116.960 162.873 117.088 163.063 117.862 162.585 C 118.506 162.187 118.786 161.462 118.484 160.973 C 118.182 160.485 119.277 159.391 120.918 158.543 C 124.479 156.701 125.364 156.602 124.405 158.155 C 123.959 158.876 124.131 159.037 124.862 158.585 C 125.506 158.187 125.798 157.483 125.512 157.020 C 125.226 156.557 128.183 154.338 132.084 152.089 C 139.821 147.628 140.118 147.510 139.750 149.040 C 139.613 149.613 140.305 149.220 141.289 148.168 C 142.793 146.561 143.032 144.772 142.789 136.959 C 142.605 131.034 142.080 127.523 141.342 127.278 C 140.705 127.067 139.894 127.363 139.540 127.936 M 78.168 166.297 C 77.576 167.011 76.936 171.173 76.747 175.547 L 76.402 183.500 76.201 174.917 C 76.091 170.196 76.300 166.033 76.667 165.667 C 77.917 164.416 79.261 164.981 78.168 166.297 "/></g>
<g fill="#FF3034FF" stroke="#FF3034FF">
<path d="M 135.993 104.750 C 135.860 104.888 135.694 105.454 135.625 106.009 C 135.438 107.516 128.949 111.194 127.475 110.629 C 126.770 110.358 125.363 110.806 124.347 111.624 C 122.641 112.996 122.682 113.022 124.871 111.955 C 126.350 111.235 126.999 111.192 126.597 111.843 C 125.804 113.126 111.478 121.109 110.329 120.908 C 109.873 120.828 109.163 120.873 108.750 121.007 C 108.338 121.140 108.563 121.322 109.250 121.410 C 109.938 121.499 109.478 122.138 108.229 122.832 C 106.980 123.525 105.584 123.861 105.127 123.578 C 104.669 123.295 103.441 123.749 102.397 124.587 C 100.617 126.016 100.647 126.039 102.871 124.955 C 104.274 124.272 104.984 124.216 104.612 124.819 C 103.434 126.725 90.988 133.111 89.837 132.399 C 89.146 131.972 88.964 132.132 89.378 132.803 C 90.024 133.847 85.049 137.183 83.280 136.892 C 82.851 136.821 82.163 136.873 81.750 137.007 C 81.338 137.140 81.563 137.313 82.250 137.390 C 83.210 137.498 83.194 137.724 82.183 138.365 C 81.459 138.825 80.559 138.893 80.183 138.517 C 79.808 138.141 79.500 138.396 79.500 139.083 C 79.500 139.771 78.875 140.542 78.111 140.796 C 77.150 141.117 76.978 140.834 77.553 139.880 C 78.258 138.709 78.128 138.708 76.692 139.872 C 75.330 140.977 75.000 142.998 75.000 150.239 C 75.000 159.901 74.868 159.720 80.291 157.491 C 81.276 157.086 82.010 157.147 81.922 157.627 C 81.835 158.107 81.873 158.388 82.007 158.250 C 82.140 158.113 82.306 157.548 82.375 156.996 C 82.575 155.388 104.155 142.845 105.701 143.439 C 106.472 143.735 106.880 143.615 106.606 143.172 C 105.951 142.111 111.733 138.717 112.933 139.459 C 113.444 139.774 114.187 139.506 114.585 138.862 C 115.068 138.081 114.873 137.961 114.000 138.500 C 113.172 139.012 112.933 138.917 113.350 138.242 C 114.126 136.987 128.582 128.921 129.721 129.109 C 130.149 129.179 130.838 129.127 131.250 128.993 C 131.663 128.860 131.438 128.678 130.750 128.590 C 130.063 128.501 130.522 127.862 131.771 127.168 C 133.020 126.475 134.416 126.139 134.873 126.422 C 135.331 126.705 136.559 126.251 137.603 125.413 C 139.378 123.988 139.339 123.961 137.000 124.998 C 134.618 126.054 134.634 125.992 137.341 123.693 C 140.050 121.392 140.182 120.886 140.182 112.775 C 140.182 105.907 139.924 104.433 138.841 105.119 C 137.170 106.178 135.963 106.236 136.118 105.250 C 136.184 104.838 136.127 104.613 135.993 104.750 "/></g>
<g fill="#A41923FF" stroke="#A41923FF">
<path d="M 137.500 83.602 C 136.400 84.449 135.607 85.543 135.738 86.035 C 135.869 86.526 135.233 86.643 134.324 86.294 C 133.127 85.835 132.897 86.025 133.490 86.985 C 134.035 87.865 133.923 88.070 133.156 87.597 C 132.522 87.205 131.003 87.585 129.779 88.442 C 128.556 89.299 127.768 90.053 128.027 90.118 C 128.287 90.184 128.144 90.177 127.709 90.105 C 126.041 89.827 122.977 92.153 123.627 93.205 C 124.034 93.864 123.852 94.027 123.175 93.608 C 121.619 92.647 117.781 94.837 118.627 96.205 C 119.034 96.864 118.852 97.027 118.175 96.608 C 117.552 96.223 116.020 96.475 114.771 97.168 C 113.237 98.019 112.987 98.471 114.000 98.561 C 115.857 98.727 115.156 99.171 112.500 99.512 C 109.848 99.851 91.000 110.944 91.000 112.165 C 91.000 112.689 90.566 112.850 90.036 112.523 C 89.507 112.195 88.157 112.843 87.036 113.964 C 85.916 115.084 84.828 115.888 84.617 115.750 C 84.407 115.613 82.382 116.541 80.117 117.814 L 76.000 120.128 76.000 127.564 C 76.000 131.654 76.241 135.000 76.535 135.000 C 77.940 135.000 81.918 131.676 81.439 130.902 C 81.141 130.419 81.668 130.319 82.612 130.681 C 83.868 131.164 84.109 130.985 83.510 130.015 C 82.970 129.143 83.078 128.930 83.825 129.392 C 85.272 130.286 89.247 128.209 88.476 126.961 C 88.157 126.445 88.482 126.242 89.198 126.510 C 89.914 126.779 91.850 126.101 93.500 125.006 C 95.150 123.910 96.275 122.958 96.000 122.891 C 95.725 122.824 95.950 122.702 96.500 122.620 C 98.661 122.297 106.409 117.583 105.000 117.448 C 104.175 117.369 103.950 117.183 104.500 117.034 C 105.050 116.885 105.856 116.823 106.291 116.895 C 106.725 116.968 108.075 116.475 109.291 115.800 C 110.809 114.956 111.031 114.531 110.000 114.439 C 109.175 114.365 108.950 114.183 109.500 114.034 C 110.050 113.885 110.859 113.824 111.298 113.898 C 111.737 113.972 115.326 112.113 119.273 109.768 C 123.221 107.423 125.787 105.459 124.975 105.405 C 123.085 105.277 123.910 104.810 126.542 104.519 C 129.103 104.236 133.000 102.191 133.000 101.131 C 133.000 100.693 133.576 100.333 134.281 100.333 C 134.985 100.333 136.785 99.532 138.281 98.552 C 140.767 96.922 141.000 96.227 141.000 90.416 C 141.000 84.822 140.791 84.129 139.250 84.613 C 137.756 85.083 137.784 84.932 139.441 83.582 C 141.939 81.547 140.147 81.566 137.500 83.602 M 77.919 125.250 L 77.282 130.500 77.141 125.250 C 77.063 122.363 77.350 120.000 77.778 120.000 C 78.206 120.000 78.269 122.363 77.919 125.250 "/></g>
<g fill="#000000FF" stroke="#000000FF">
<path d="M 435.500 87.861 C 430.159 91.160 428.653 93.654 428.197 99.954 C 427.784 105.661 427.888 105.957 431.745 110.092 C 435.426 114.038 436.167 114.384 441.803 114.792 C 446.874 115.159 448.502 114.853 451.571 112.956 C 461.081 107.078 460.584 92.352 450.717 87.670 C 446.056 85.458 439.251 85.544 435.500 87.861 "/></g>
<g fill="#A41923FF" stroke="#A41923FF">
<path d="M 147.750 82.662 C 148.438 82.940 148.993 83.917 148.985 84.833 C 148.971 86.275 148.838 86.297 148.000 85.000 C 147.312 83.935 147.026 85.169 147.015 89.250 C 147.007 92.427 147.447 95.000 148.000 95.000 C 148.550 95.000 149.000 95.450 149.000 96.000 C 149.000 96.550 148.490 96.888 147.866 96.750 C 147.243 96.613 148.453 97.602 150.556 98.949 C 152.658 100.295 155.203 101.335 156.211 101.259 C 157.219 101.183 157.812 101.495 157.530 101.951 C 157.248 102.408 158.203 103.558 159.652 104.508 C 162.104 106.114 162.523 106.121 165.697 104.608 C 167.572 103.713 168.873 102.604 168.588 102.142 C 167.633 100.596 174.069 101.110 177.304 102.838 C 179.062 103.776 181.613 104.526 182.973 104.502 C 185.198 104.464 185.049 104.224 181.473 102.096 C 179.288 100.796 176.600 99.625 175.500 99.494 C 174.400 99.363 173.950 99.184 174.500 99.096 C 175.050 99.008 174.669 98.307 173.653 97.537 C 172.637 96.767 171.101 96.408 170.239 96.739 C 169.269 97.111 168.925 96.931 169.336 96.265 C 170.182 94.896 161.375 89.650 159.831 90.604 C 159.148 91.026 158.965 90.866 159.373 90.205 C 160.219 88.837 156.381 86.647 154.825 87.608 C 154.078 88.070 153.970 87.857 154.510 86.985 C 155.109 86.015 154.868 85.836 153.612 86.319 C 152.668 86.681 152.141 86.581 152.439 86.098 C 152.983 85.218 148.766 81.930 147.285 82.079 C 146.853 82.122 147.063 82.385 147.750 82.662 "/></g>
<g fill="#000000FF" stroke="#000000FF">
<path d="M 211.511 92.264 L 216.500 95.528 216.777 142.514 C 216.930 168.356 216.828 190.400 216.550 191.500 C 216.268 192.621 213.373 195.031 209.966 196.981 C 206.622 198.896 204.259 200.586 204.715 200.738 C 205.170 200.890 208.458 199.099 212.022 196.757 L 218.500 192.500 218.500 144.014 L 218.500 95.528 213.511 92.264 C 210.768 90.469 208.073 89.000 207.523 89.000 C 206.973 89.000 208.768 90.469 211.511 92.264 "/></g>
<g fill="#A41923FF" stroke="#A41923FF">
<path d="M 200.720 96.588 C 199.112 97.460 198.233 98.568 198.634 99.217 C 199.083 99.943 198.758 100.121 197.713 99.720 C 196.825 99.379 195.178 99.865 194.054 100.800 C 192.058 102.461 192.218 102.619 201.005 107.673 L 210.000 112.845 210.183 105.673 L 210.367 98.500 211.000 106.500 L 211.633 114.500 211.817 106.735 C 212.000 98.973 211.999 98.970 208.750 96.989 C 204.905 94.645 204.354 94.617 200.720 96.588 "/></g>
<g fill="#000000FF" stroke="#000000FF">
<path d="M 83.500 108.134 C 81.850 109.144 79.384 110.455 78.020 111.048 C 76.657 111.640 75.307 112.445 75.020 112.836 C 74.734 113.226 73.257 114.337 71.738 115.304 L 68.976 117.062 69.238 154.781 L 69.500 192.500 75.968 196.750 C 79.525 199.088 82.900 200.990 83.468 200.977 C 84.035 200.965 82.025 199.428 79.000 197.563 C 75.975 195.697 72.938 193.665 72.250 193.046 C 71.292 192.184 71.000 183.186 71.000 154.579 L 71.000 117.237 74.250 114.763 C 76.038 113.401 78.513 111.968 79.750 111.576 C 80.988 111.185 82.000 110.494 82.000 110.041 C 82.000 109.588 83.157 108.926 84.571 108.572 C 85.985 108.217 86.998 107.560 86.821 107.112 C 86.644 106.665 85.150 107.124 83.500 108.134 "/></g>
<g fill="#FFFFFFFF" stroke="#FFFFFFFF">
<path d="M 169.250 107.220 C 168.013 107.817 167.000 108.630 167.000 109.027 C 167.000 109.673 183.541 120.000 184.576 120.000 C 184.809 120.000 185.000 118.243 185.000 116.095 C 185.000 112.407 184.697 112.020 179.515 109.095 C 173.579 105.745 172.658 105.577 169.250 107.220 "/></g>
<g fill="#D41718FF" stroke="#D41718FF">
<path d="M 199.275 118.333 L 196.050 120.500 200.115 118.571 C 204.075 116.692 204.269 116.690 207.590 118.479 L 211.000 120.315 211.000 152.201 C 211.000 182.015 210.886 184.069 209.250 183.794 C 208.012 183.586 208.159 183.876 209.750 184.785 L 212.000 186.070 212.000 153.117 L 212.000 120.163 208.632 118.082 C 204.517 115.539 203.388 115.569 199.275 118.333 "/></g>
<g fill="#FF3034FF" stroke="#FF3034FF">
<path d="M 83.453 114.840 L 75.500 119.609 75.210 127.804 C 75.050 132.312 75.319 136.000 75.808 136.000 C 76.937 136.000 103.145 120.415 103.145 119.743 C 103.145 119.468 97.194 122.788 89.921 127.121 C 82.647 131.455 76.540 135.000 76.348 135.000 C 76.157 135.000 76.000 131.668 76.000 127.595 L 76.000 120.190 84.045 115.474 C 88.470 112.879 91.936 110.603 91.748 110.414 C 91.559 110.226 87.827 112.218 83.453 114.840 "/></g>
<g fill="#A41923FF" stroke="#A41923FF">
<path d="M 186.000 105.409 C 186.000 105.699 187.238 106.642 188.750 107.505 C 191.413 109.024 191.421 109.053 189.000 108.424 C 186.958 107.894 186.729 108.016 187.750 109.088 C 188.438 109.809 189.000 112.110 189.000 114.200 C 189.000 116.290 189.477 118.000 190.059 118.000 C 190.641 118.000 190.793 117.474 190.395 116.830 C 189.918 116.058 190.205 115.865 191.239 116.261 C 192.101 116.592 193.637 116.233 194.653 115.463 C 195.669 114.693 196.107 114.049 195.628 114.032 C 195.148 114.014 195.273 113.375 195.907 112.612 C 197.011 111.282 195.825 110.335 186.750 105.298 C 186.338 105.069 186.000 105.119 186.000 105.409 "/></g>
<g fill="#FF3034FF" stroke="#FF3034FF">
<path d="M 152.000 100.315 C 152.000 100.527 154.363 102.172 157.250 103.970 L 162.500 107.239 167.772 104.393 C 172.501 101.840 173.274 101.690 175.272 102.938 C 176.497 103.704 179.750 105.571 182.500 107.087 C 187.256 109.709 187.515 110.067 187.805 114.422 C 188.132 119.340 189.281 120.071 192.559 117.445 C 194.434 115.943 194.426 115.926 192.316 116.945 C 189.124 118.487 189.000 118.377 189.000 114.013 C 189.000 109.735 188.427 109.198 177.222 102.976 L 172.944 100.600 167.625 103.477 L 162.307 106.355 159.403 104.319 C 155.985 101.922 152.000 99.767 152.000 100.315 "/></g>
<g fill="#D41718FF" stroke="#D41718FF">
<path d="M 138.441 104.565 C 136.728 105.946 136.716 106.024 138.341 105.224 C 140.055 104.381 140.182 104.902 140.182 112.799 C 140.182 120.884 140.049 121.393 137.341 123.693 C 135.252 125.467 135.075 125.829 136.672 125.059 C 141.408 122.778 142.000 121.318 142.000 111.929 C 142.000 107.018 141.636 103.000 141.191 103.000 C 140.746 103.000 139.509 103.704 138.441 104.565 "/></g>
<g fill="#FF3034FF" stroke="#FF3034FF">
<path d="M 210.796 98.158 C 211.650 99.250 211.991 102.191 211.796 106.791 L 211.500 113.767 201.770 108.063 C 194.049 103.538 192.294 102.104 193.270 101.121 C 194.246 100.138 194.138 100.019 192.750 100.548 C 191.788 100.914 191.000 101.567 191.000 101.998 C 191.000 102.720 211.280 115.000 212.473 115.000 C 212.763 115.000 213.000 111.455 213.000 107.122 C 213.000 100.810 212.652 98.972 211.250 97.872 C 209.685 96.645 209.637 96.675 210.796 98.158 "/></g>
<g fill="#D41718FF" stroke="#D41718FF">
<path d="M 139.510 128.984 C 139.165 129.543 139.246 130.000 139.691 130.000 C 141.098 129.999 140.310 146.932 138.835 148.404 C 137.874 149.363 138.130 149.338 139.750 148.311 C 141.808 147.008 142.000 146.127 142.000 138.002 C 142.000 129.822 141.071 126.458 139.510 128.984 "/></g>
<g fill="#FFFFFFFF" stroke="#FFFFFFFF">
<path d="M 176.540 144.935 C 175.743 146.225 178.050 152.004 179.348 151.968 C 180.624 151.933 184.000 149.589 184.000 148.739 C 184.000 147.667 177.044 144.120 176.540 144.935 "/></g>
<g fill="#FFFFFFFF" stroke="#FFFFFFFF">
<path d="M 163.457 139.750 C 164.598 144.401 166.241 145.356 168.877 142.900 L 171.158 140.775 168.055 138.887 C 163.734 136.259 162.651 136.462 163.457 139.750 "/></g>
<g fill="#0F1029FF" stroke="#0F1029FF">
<path d="M 181.441 144.426 C 182.723 145.465 182.921 146.000 182.024 146.000 C 180.173 146.000 181.389 147.087 183.604 147.412 C 185.869 147.745 186.711 150.000 184.570 150.000 C 183.691 150.000 182.065 150.563 180.956 151.250 C 179.318 152.265 178.780 152.244 178.091 151.137 C 177.374 149.986 177.166 149.986 176.756 151.137 C 176.107 152.957 177.847 156.212 179.066 155.459 C 179.598 155.131 179.726 154.366 179.352 153.761 C 178.915 153.054 179.263 152.887 180.324 153.294 C 181.289 153.664 181.877 153.467 181.738 152.820 C 181.607 152.210 182.963 151.313 184.750 150.827 C 188.719 149.747 188.832 148.712 185.250 146.232 C 181.536 143.660 179.034 142.474 181.441 144.426 "/></g>
<g fill="#FF3034FF" stroke="#FF3034FF">
<path d="M 169.000 94.349 C 169.000 94.606 175.746 98.781 183.991 103.627 C 198.138 111.942 198.884 112.533 197.241 114.125 C 195.766 115.555 195.870 115.545 197.924 114.056 L 200.348 112.300 185.424 103.513 C 177.216 98.680 170.163 94.536 169.750 94.304 C 169.338 94.072 169.000 94.092 169.000 94.349 "/></g>
<g fill="#000000FF" stroke="#000000FF">
<path d="M 95.462 207.939 C 95.781 208.455 98.620 210.367 101.771 212.189 C 104.922 214.010 108.400 216.035 109.500 216.689 C 114.463 219.641 119.000 221.759 119.000 221.124 C 119.000 220.742 116.428 219.096 113.285 217.465 C 110.141 215.834 106.959 213.938 106.213 213.250 C 105.467 212.563 104.214 212.000 103.429 212.000 C 102.643 212.000 102.000 211.550 102.000 211.000 C 102.000 210.450 101.380 210.000 100.622 210.000 C 99.865 210.000 98.685 209.325 98.000 208.500 C 96.651 206.875 94.512 206.402 95.462 207.939 "/></g>
<g fill="#000000FF" stroke="#000000FF">
<path d="M 174.643 217.500 C 173.818 218.325 172.773 219.001 172.321 219.002 C 171.870 219.003 168.471 220.995 164.769 223.429 C 161.066 225.862 157.129 228.142 156.019 228.494 C 154.908 228.846 154.000 229.520 154.000 229.991 C 154.000 230.993 159.895 228.219 161.821 226.309 C 162.548 225.589 163.786 225.000 164.571 225.000 C 165.357 225.000 166.000 224.599 166.000 224.108 C 166.000 223.618 167.125 222.934 168.500 222.589 C 169.875 222.244 171.000 221.520 171.000 220.981 C 171.000 220.441 171.606 220.000 172.347 220.000 C 173.088 220.000 174.732 219.100 176.000 218.000 C 177.268 216.900 177.819 216.000 177.224 216.000 C 176.630 216.000 175.468 216.675 174.643 217.500 "/></g>
<g fill="#0F1029FF" stroke="#0F1029FF">
<path d="M 169.234 137.277 C 170.188 138.059 170.676 138.991 170.318 139.349 C 169.960 139.707 170.454 140.000 171.417 140.000 C 172.379 140.000 172.979 140.563 172.750 141.250 C 172.521 141.938 171.696 142.507 170.917 142.515 C 169.834 142.527 169.794 142.718 170.750 143.324 C 171.438 143.761 172.000 143.797 172.000 143.404 C 172.000 143.011 172.900 143.505 174.000 144.500 C 175.205 145.591 176.050 145.851 176.125 145.155 C 176.194 144.520 176.306 143.315 176.375 142.478 C 176.444 141.640 174.475 139.808 172.000 138.406 C 169.525 137.004 168.281 136.496 169.234 137.277 "/></g>
<g fill="#FF3034FF" stroke="#FF3034FF">
<path d="M 140.823 88.912 L 141.147 96.830 136.528 99.536 C 133.988 101.025 132.123 102.457 132.385 102.718 C 132.646 102.979 134.916 101.778 137.430 100.048 L 142.000 96.904 142.000 88.952 C 142.000 84.578 141.663 80.999 141.250 80.998 C 140.838 80.996 140.646 84.558 140.823 88.912 "/></g>
<g fill="#000000FF" stroke="#000000FF">
<path d="M 169.115 112.865 C 173.549 116.332 181.988 121.171 183.009 120.830 C 183.566 120.645 180.459 118.357 176.103 115.746 C 167.906 110.834 164.970 109.623 169.115 112.865 "/></g>
<g fill="#FF3034FF" stroke="#FF3034FF">
<path d="M 138.592 102.851 C 138.252 103.401 138.855 103.589 139.999 103.290 C 141.896 102.794 142.000 103.255 141.992 112.133 C 141.987 117.285 141.650 122.041 141.242 122.701 C 140.834 123.362 141.080 123.295 141.789 122.552 C 142.699 121.598 142.993 118.458 142.789 111.862 C 142.549 104.106 142.219 102.469 140.843 102.206 C 139.932 102.032 138.919 102.322 138.592 102.851 "/></g>
<g fill="#000000FF" stroke="#000000FF">
<path d="M 130.000 228.841 C 131.925 229.810 135.645 231.864 138.266 233.405 C 142.050 235.631 143.595 236.035 145.766 235.364 L 148.500 234.519 145.741 234.799 C 143.940 234.981 140.621 233.676 136.183 231.039 C 132.443 228.818 128.735 227.018 127.942 227.040 C 127.149 227.062 128.075 227.872 130.000 228.841 "/></g>
<g fill="#D41718FF" stroke="#D41718FF">
<path d="M 79.750 164.250 L 76.000 166.393 76.204 174.947 L 76.407 183.500 76.745 175.210 C 77.075 167.095 77.149 166.880 80.291 164.969 C 84.774 162.243 84.320 161.638 79.750 164.250 "/></g>
<g fill="#D41718FF" stroke="#D41718FF">
<path d="M 147.000 137.798 C 147.000 147.315 147.136 147.996 149.250 149.020 C 151.325 150.026 151.359 149.997 149.688 148.649 C 148.147 147.407 147.906 145.821 148.076 138.066 C 148.186 133.048 147.989 128.656 147.638 128.305 C 147.287 127.954 147.000 132.226 147.000 137.798 "/></g>
<g fill="#D41718FF" stroke="#D41718FF">
<path d="M 147.204 113.534 L 147.000 122.569 150.250 124.353 L 153.500 126.138 150.794 123.817 C 148.314 121.689 148.061 120.790 147.748 112.998 L 147.407 104.500 147.204 113.534 "/></g>
<g fill="#000000FF" stroke="#000000FF">
<path d="M 106.777 94.238 C 101.980 97.070 98.232 99.565 98.449 99.782 C 98.666 99.999 102.950 97.782 107.969 94.854 C 112.988 91.927 116.736 89.432 116.297 89.310 C 115.859 89.187 111.575 91.405 106.777 94.238 "/></g>
<g fill="#D41718FF" stroke="#D41718FF">
<path d="M 93.000 149.581 C 87.225 153.105 82.579 156.160 82.677 156.371 C 82.774 156.582 87.845 153.775 93.946 150.133 C 100.046 146.492 104.692 143.437 104.269 143.344 C 103.846 143.251 98.775 146.058 93.000 149.581 "/></g>
<g fill="#D41718FF" stroke="#D41718FF">
<path d="M 79.187 139.179 L 75.926 141.243 76.257 149.872 L 76.589 158.500 76.794 149.966 C 76.996 141.588 77.056 141.398 80.069 139.618 C 81.757 138.621 82.983 137.650 82.793 137.460 C 82.603 137.270 80.980 138.043 79.187 139.179 "/></g>
<g fill="#000000FF" stroke="#000000FF">
<path d="M 169.750 104.689 C 168.788 104.941 168.000 105.564 168.000 106.073 C 168.000 107.309 169.722 107.258 170.500 106.000 C 171.533 104.329 173.738 104.857 178.846 108.000 C 181.527 109.650 184.121 110.988 184.611 110.974 C 185.100 110.960 183.046 109.385 180.046 107.474 C 174.746 104.097 173.404 103.734 169.750 104.689 "/></g>
<g fill="#FF3034FF" stroke="#FF3034FF">
<path d="M 120.500 109.000 C 115.425 112.025 111.098 114.829 110.886 115.230 C 110.674 115.632 114.826 113.382 120.114 110.230 C 125.402 107.079 129.728 104.275 129.728 104.000 C 129.728 103.725 125.575 105.975 120.500 109.000 "/></g>
<g fill="#FF3034FF" stroke="#FF3034FF">
<path d="M 108.500 100.000 C 103.425 103.025 99.098 105.829 98.886 106.230 C 98.674 106.632 102.826 104.382 108.114 101.230 C 113.402 98.079 117.728 95.275 117.728 95.000 C 117.728 94.725 113.575 96.975 108.500 100.000 "/></g>
<g fill="#FF3034FF" stroke="#FF3034FF">
<path d="M 146.000 88.943 C 146.000 96.092 146.225 97.029 148.250 98.311 C 150.403 99.674 150.421 99.661 148.666 98.008 C 147.132 96.563 146.887 95.033 147.166 88.638 C 147.350 84.435 147.163 80.996 146.750 80.998 C 146.338 80.999 146.000 84.574 146.000 88.943 "/></g>
<g fill="#000000FF" stroke="#000000FF">
<path d="M 194.970 92.464 C 191.961 94.381 188.900 95.960 188.167 95.974 C 187.433 95.988 186.983 96.446 187.167 96.991 C 187.350 97.537 190.793 96.084 194.817 93.764 C 198.842 91.443 201.753 89.418 201.287 89.262 C 200.821 89.107 197.978 90.548 194.970 92.464 "/></g>
<g fill="#000000FF" stroke="#000000FF">
<path d="M 199.536 202.966 C 197.905 203.810 195.961 205.063 195.214 205.750 C 194.468 206.438 193.269 207.000 192.551 207.000 C 191.833 207.000 190.685 207.675 190.000 208.500 C 188.129 210.754 189.290 210.353 195.966 206.440 C 202.206 202.784 204.836 200.224 199.536 202.966 "/></g>
<g fill="#000000FF" stroke="#000000FF">
<path d="M 146.000 74.744 C 146.825 75.067 150.313 77.051 153.750 79.155 C 157.188 81.258 159.991 82.646 159.981 82.239 C 159.954 81.203 147.422 73.983 145.817 74.079 C 144.897 74.134 144.952 74.335 146.000 74.744 "/></g>
<g fill="#D41718FF" stroke="#D41718FF">
<path d="M 181.349 104.532 C 184.565 106.472 188.046 108.158 189.084 108.279 C 190.121 108.401 187.829 106.813 183.989 104.750 C 175.179 100.018 173.653 99.892 181.349 104.532 "/></g>
<g fill="#000000FF" stroke="#000000FF">
<path d="M 171.083 89.395 C 172.339 90.584 183.654 96.995 184.500 96.997 C 185.050 96.998 182.575 95.199 179.000 93.000 C 175.425 90.801 172.088 89.001 171.583 89.001 C 171.079 89.000 170.854 89.178 171.083 89.395 "/></g>
<g fill="#000000FF" stroke="#000000FF">
<path d="M 129.271 80.795 C 125.845 82.833 123.032 84.822 123.021 85.216 C 123.009 85.610 126.152 84.036 130.006 81.718 C 133.859 79.400 136.671 77.411 136.256 77.297 C 135.840 77.183 132.697 78.757 129.271 80.795 "/></g>
<g fill="#D41718FF" stroke="#D41718FF">
<path d="M 166.507 134.011 C 166.843 134.555 167.573 135.000 168.129 135.000 C 168.685 135.000 171.072 136.330 173.434 137.955 C 175.796 139.580 178.326 141.043 179.055 141.205 C 180.685 141.567 170.206 134.644 167.698 133.701 C 166.615 133.293 166.140 133.417 166.507 134.011 "/></g>
<g fill="#D41718FF" stroke="#D41718FF">
<path d="M 97.805 128.394 L 91.111 132.500 97.134 129.500 C 100.446 127.850 103.459 126.003 103.828 125.394 C 104.198 124.786 101.487 126.136 97.805 128.394 "/></g>
<g fill="#D41718FF" stroke="#D41718FF">
<path d="M 119.805 115.394 L 113.111 119.500 119.134 116.500 C 122.446 114.850 125.459 113.003 125.828 112.394 C 126.198 111.786 123.487 113.136 119.805 115.394 "/></g>
<g fill="#0F1029FF" stroke="#0F1029FF">
<path d="M 163.748 143.585 C 163.072 144.261 164.024 148.005 164.867 147.985 C 166.304 147.950 168.375 146.055 168.592 144.575 C 168.720 143.704 168.407 143.249 167.896 143.564 C 167.385 143.880 167.226 144.557 167.543 145.069 C 167.859 145.581 167.390 146.000 166.500 146.000 C 165.610 146.000 165.141 145.581 165.457 145.069 C 166.093 144.041 164.594 142.739 163.748 143.585 "/></g>
<g fill="#FF3034FF" stroke="#FF3034FF">
<path d="M 199.212 96.759 L 194.924 99.500 199.761 97.107 C 203.864 95.078 204.970 94.896 207.049 95.912 C 209.364 97.044 209.392 97.024 207.559 95.555 C 204.949 93.464 204.198 93.573 199.212 96.759 "/></g>
<g fill="#FF3034FF" stroke="#FF3034FF">
<path d="M 131.808 86.439 C 127.048 89.328 126.538 89.794 130.041 88.053 C 132.750 86.707 135.761 84.879 136.733 83.992 C 137.705 83.104 135.489 84.206 131.808 86.439 "/></g>
<g fill="#000000FF" stroke="#000000FF">
<path d="M 85.008 201.750 C 85.016 202.523 92.344 207.000 93.601 207.000 C 93.989 207.000 93.268 206.100 92.000 205.000 C 90.732 203.900 89.088 203.000 88.347 203.000 C 87.606 203.000 87.000 202.550 87.000 202.000 C 87.000 201.450 86.550 201.000 86.000 201.000 C 85.450 201.000 85.003 201.338 85.008 201.750 "/></g>
<g fill="#D41718FF" stroke="#D41718FF">
<path d="M 118.808 141.439 C 114.048 144.328 113.538 144.794 117.041 143.053 C 119.750 141.707 122.761 139.879 123.733 138.992 C 124.705 138.104 122.489 139.206 118.808 141.439 "/></g>
<g fill="#000000FF" stroke="#000000FF">
<path d="M 171.000 141.375 C 171.000 142.131 169.538 143.471 167.750 144.352 C 165.963 145.233 165.227 145.965 166.115 145.977 C 167.003 145.990 168.916 145.067 170.365 143.927 C 173.048 141.817 173.805 140.000 172.000 140.000 C 171.450 140.000 171.000 140.619 171.000 141.375 "/></g>
<g fill="#000000FF" stroke="#000000FF">
<path d="M 93.536 101.937 C 90.430 103.574 87.412 106.000 88.480 106.000 C 89.646 106.000 96.984 101.503 96.742 100.937 C 96.609 100.627 95.166 101.077 93.536 101.937 "/></g>
<g fill="#D41718FF" stroke="#D41718FF">
<path d="M 150.000 130.370 C 150.000 130.612 151.992 131.977 154.426 133.404 C 156.861 134.831 159.059 136.786 159.310 137.749 C 159.719 139.312 159.780 139.320 159.884 137.818 C 159.995 136.207 157.050 133.617 152.250 131.107 C 151.013 130.459 150.000 130.128 150.000 130.370 "/></g>
<g fill="#000000FF" stroke="#000000FF">
<path d="M 164.500 85.526 C 166.700 86.881 169.130 87.992 169.899 87.995 C 170.668 87.998 169.182 86.875 166.596 85.500 C 160.582 82.302 159.292 82.318 164.500 85.526 "/></g>
<g fill="#D41718FF" stroke="#D41718FF">
<path d="M 130.279 153.325 L 125.058 156.500 130.112 154.000 C 132.892 152.625 135.241 151.196 135.333 150.825 C 135.425 150.453 133.150 151.578 130.279 153.325 "/></g>
<g fill="#D41718FF" stroke="#D41718FF">
<path d="M 77.141 125.250 L 77.282 130.500 77.919 125.250 C 78.269 122.363 78.206 120.000 77.778 120.000 C 77.350 120.000 77.063 122.363 77.141 125.250 "/></g>
<g fill="#000000FF" stroke="#000000FF">
<path d="M 178.000 144.000 C 179.375 145.076 181.175 145.963 182.000 145.971 C 182.825 145.980 182.150 145.093 180.500 144.000 C 176.637 141.441 174.729 141.441 178.000 144.000 "/></g>
<g fill="#000000FF" stroke="#000000FF">
<path d="M 164.648 135.993 C 165.829 136.470 167.093 137.341 167.457 137.930 C 167.820 138.518 168.879 138.997 169.809 138.993 C 170.962 138.989 170.546 138.355 168.500 137.000 C 166.850 135.907 164.825 135.039 164.000 135.070 C 163.105 135.104 163.366 135.476 164.648 135.993 "/></g>
<g fill="#D41718FF" stroke="#D41718FF">
<path d="M 186.500 170.730 C 188.452 172.584 195.342 176.363 194.609 175.177 C 194.200 174.514 191.982 173.028 189.682 171.876 C 187.382 170.723 185.950 170.207 186.500 170.730 "/></g>
<g fill="#D41718FF" stroke="#D41718FF">
<path d="M 183.378 153.625 C 180.699 155.481 178.846 157.000 179.262 157.000 C 180.118 157.000 188.064 151.382 188.177 150.696 C 188.217 150.451 186.058 151.769 183.378 153.625 "/></g>
<g fill="#FF3034FF" stroke="#FF3034FF">
<path d="M 141.558 151.907 C 141.249 152.405 141.852 152.590 142.897 152.317 C 143.941 152.044 146.079 152.589 147.648 153.529 L 150.500 155.237 148.000 153.141 C 145.367 150.933 142.499 150.384 141.558 151.907 "/></g>
<g fill="#FF3034FF" stroke="#FF3034FF">
<path d="M 150.500 83.490 C 152.734 85.347 159.069 88.772 157.500 87.274 C 156.950 86.749 154.700 85.309 152.500 84.074 C 150.300 82.839 149.400 82.576 150.500 83.490 "/></g>
<g fill="#000000FF" stroke="#000000FF">
<path d="M 161.621 139.500 C 162.324 142.810 164.022 145.310 163.965 142.950 C 163.945 142.153 163.266 140.375 162.456 139.000 L 160.984 136.500 161.621 139.500 "/></g>
<g fill="#D41718FF" stroke="#D41718FF">
<path d="M 164.500 157.726 C 165.050 158.251 167.300 159.691 169.500 160.926 C 171.700 162.161 172.600 162.424 171.500 161.510 C 169.266 159.653 162.931 156.228 164.500 157.726 "/></g>
<g fill="#D41718FF" stroke="#D41718FF">
<path d="M 119.221 159.799 L 114.942 162.500 119.048 160.500 C 121.307 159.400 123.232 158.185 123.327 157.799 C 123.422 157.414 121.574 158.314 119.221 159.799 "/></g>
<g fill="#D41718FF" stroke="#D41718FF">
<path d="M 117.658 135.171 C 115.717 136.167 113.859 137.419 113.529 137.953 C 113.199 138.487 114.777 137.874 117.037 136.591 C 122.066 133.735 122.530 132.672 117.658 135.171 "/></g>
<g fill="#000000FF" stroke="#000000FF">
<path d="M 174.000 145.185 C 174.000 145.507 174.697 147.285 175.549 149.135 C 177.094 152.488 177.097 152.490 176.479 149.500 C 175.943 146.909 174.000 143.527 174.000 145.185 "/></g>
<g fill="#D41718FF" stroke="#D41718FF">
<path d="M 91.322 157.588 C 89.220 158.880 87.827 159.952 88.226 159.969 C 89.195 160.010 95.549 156.124 95.322 155.628 C 95.224 155.414 93.424 156.296 91.322 157.588 "/></g>
<g fill="#D41718FF" stroke="#D41718FF">
<path d="M 174.079 150.685 C 173.929 152.941 175.956 157.000 177.225 156.985 C 178.101 156.974 178.155 156.739 177.400 156.235 C 176.795 155.831 175.818 154.150 175.229 152.500 C 174.640 150.850 174.122 150.033 174.079 150.685 "/></g>
<g fill="#D41718FF" stroke="#D41718FF">
<path d="M 183.803 144.022 C 188.386 146.816 190.062 147.011 185.766 144.250 C 183.840 143.013 181.867 142.002 181.382 142.004 C 180.897 142.006 181.987 142.914 183.803 144.022 "/></g>
<g fill="#D41718FF" stroke="#D41718FF">
<path d="M 163.000 112.898 C 163.000 113.355 164.598 114.352 166.552 115.114 L 170.104 116.500 166.552 114.284 C 164.598 113.065 163.000 112.441 163.000 112.898 "/></g>
<g fill="#D41718FF" stroke="#D41718FF">
<path d="M 131.322 108.588 C 129.220 109.880 127.827 110.952 128.226 110.969 C 129.195 111.010 135.549 107.124 135.322 106.628 C 135.224 106.414 133.424 107.296 131.322 108.588 "/></g>
<g fill="#FF3034FF" stroke="#FF3034FF">
<path d="M 105.079 174.411 C 103.197 175.560 102.297 176.391 103.079 176.258 C 103.860 176.126 105.400 175.185 106.500 174.169 C 108.132 172.661 107.871 172.705 105.079 174.411 "/></g>
<g fill="#000000FF" stroke="#000000FF">
<path d="M 122.500 224.000 C 124.150 225.093 125.950 225.988 126.500 225.990 C 127.050 225.991 126.027 225.094 124.226 223.996 C 119.980 221.408 118.590 221.411 122.500 224.000 "/></g>
<g fill="#000000FF" stroke="#000000FF">
<path d="M 184.500 212.157 C 182.850 213.163 182.043 213.990 182.706 213.993 C 183.370 213.997 184.720 213.174 185.706 212.163 C 187.447 210.381 187.411 210.381 184.500 212.157 "/></g>
<g fill="#D41718FF" stroke="#D41718FF">
<path d="M 183.654 125.250 C 184.224 126.170 188.422 126.244 189.317 125.350 C 189.674 124.992 188.442 124.655 186.578 124.600 C 184.714 124.545 183.398 124.838 183.654 125.250 "/></g>
</svg>
