<?xml version="1.0" encoding="utf-8"?>
<!DOCTYPE svg PUBLIC "-//W3C//DTD SVG 20010904//EN" "http://www.w3.org/TR/2001/REC-SVG-20010904/DTD/svg10.dtd">
<svg version="1.0" xmlns="http://www.w3.org/2000/svg" width="251pt" height="251pt" viewBox="0 0 251 251" style="" preserveAspectRatio="xMidYMid meet">
<g fill="#1B9CAFFF" stroke="#1B9CAFFF">
<path d="M 2.200 96.200 C 0.708 97.692 0.507 151.676 1.985 154.000 C 2.752 155.207 5.338 155.486 15.219 155.428 C 25.366 155.369 28.303 154.997 32.122 153.291 C 46.824 146.722 53.116 131.619 48.071 115.009 C 45.366 106.101 39.222 99.286 31.537 96.667 C 25.535 94.622 4.119 94.281 2.200 96.200 M 31.555 104.526 C 44.142 112.313 46.740 130.198 36.906 141.369 C 32.058 146.877 26.331 149.000 16.322 149.000 L 9.000 149.000 9.000 124.901 L 9.000 100.801 17.831 101.151 C 25.582 101.457 27.261 101.870 31.555 104.526 "/></g>
<g fill="#1B9CAFFF" stroke="#1B9CAFFF">
<path d="M 70.463 96.591 C 65.011 98.527 59.554 103.198 56.342 108.679 C 52.500 115.236 51.919 125.617 54.995 132.767 C 57.788 139.260 64.223 145.287 70.891 147.655 C 75.623 149.335 76.000 149.711 76.000 152.735 C 76.000 155.878 76.150 156.000 80.000 156.000 C 83.869 156.000 84.000 155.890 84.000 152.658 C 84.000 149.663 84.389 149.200 87.750 148.192 C 93.664 146.418 99.347 142.208 102.946 136.934 C 105.702 132.895 106.346 130.890 106.764 125.050 C 107.443 115.562 105.756 110.057 100.313 104.003 C 93.046 95.920 80.868 92.897 70.463 96.591 M 88.800 104.411 C 98.519 109.488 102.523 121.156 97.856 130.798 C 95.787 135.071 88.493 141.000 85.304 141.000 C 84.278 141.000 84.000 136.955 84.000 122.000 C 84.000 109.401 84.354 103.000 85.050 103.000 C 85.627 103.000 87.314 103.635 88.800 104.411 M 76.000 122.000 C 76.000 134.599 75.646 141.000 74.950 141.000 C 69.181 141.000 59.988 129.794 60.006 122.782 C 60.022 115.958 64.306 108.614 70.457 104.863 C 76.038 101.460 76.000 101.342 76.000 122.000 "/></g>
<g fill="#C0D530FF" stroke="#C0D530FF">
<path d="M 206.035 95.934 C 204.308 99.162 204.709 134.658 206.543 140.833 C 209.678 151.390 217.566 156.579 229.340 155.829 C 234.181 155.521 236.769 154.757 239.828 152.732 C 251.384 145.085 252.814 127.582 242.685 117.745 C 239.335 114.492 233.478 112.000 229.181 112.000 C 225.905 112.000 215.000 116.789 215.000 118.227 C 215.000 118.652 214.550 119.000 214.000 119.000 C 213.392 119.000 213.000 114.567 213.000 107.700 C 213.000 100.244 212.592 95.992 211.800 95.200 C 209.998 93.398 207.202 93.754 206.035 95.934 M 237.419 122.922 C 250.120 135.232 236.481 155.919 220.643 148.367 C 215.355 145.845 212.672 140.215 213.210 132.771 C 213.615 127.172 213.967 126.421 217.908 122.745 C 222.051 118.881 222.330 118.783 228.095 119.200 C 233.144 119.566 234.526 120.117 237.419 122.922 "/></g>
<g fill="#C0D530FF" stroke="#C0D530FF">
<path d="M 169.000 113.956 C 159.284 117.295 154.247 125.903 155.210 137.518 C 155.711 143.559 159.148 149.567 164.282 153.375 C 168.484 156.491 179.345 156.885 184.769 154.118 C 187.021 152.969 189.146 151.572 189.491 151.014 C 190.443 149.474 192.290 149.802 191.676 151.403 C 190.809 153.660 193.342 156.228 196.056 155.845 C 198.473 155.504 198.503 155.367 198.808 143.500 C 198.985 136.566 198.639 129.876 197.988 127.652 C 196.263 121.763 189.727 115.293 183.692 113.501 C 177.275 111.596 175.727 111.644 169.000 113.956 M 183.961 120.480 C 190.467 123.844 193.241 131.495 190.938 139.721 C 189.907 143.402 188.818 144.794 185.139 147.127 C 177.320 152.085 168.701 150.132 164.266 142.396 C 158.292 131.976 165.187 119.000 176.698 119.000 C 179.119 119.000 182.387 119.666 183.961 120.480 "/></g>
<g fill="#C0D530FF" stroke="#C0D530FF">
<path d="M 113.861 94.107 C 113.112 94.581 112.928 94.976 113.450 94.985 C 113.973 94.993 113.860 95.540 113.200 96.200 C 111.488 97.912 111.488 153.088 113.200 154.800 C 114.048 155.648 119.884 156.000 133.078 156.000 C 148.899 156.000 151.956 155.758 153.070 154.416 C 154.023 153.268 154.095 152.374 153.334 151.166 C 152.438 149.743 149.927 149.460 136.142 149.225 L 120.000 148.950 119.986 123.725 C 119.979 109.851 119.712 97.529 119.394 96.342 C 118.747 93.930 115.934 92.794 113.861 94.107 "/></g>
<g fill="#CADA5EEB" stroke="#CADA5EEB">
<path d="M 193.000 119.000 L 195.000 121.000 193.000 119.000 L 191.000 117.000 193.000 119.000 "/></g>
<g fill="#CADA5EEB" stroke="#CADA5EEB">
<path d="M 188.378 144.378 L 187.500 145.256 188.378 144.378 L 189.256 143.500 188.378 144.378 "/></g>
<g fill="#CADA5EEB" stroke="#CADA5EEB">
<path d="M 112.000 96.200 C 112.000 97.133 112.267 97.133 113.200 96.200 C 114.133 95.267 114.133 95.000 113.200 95.000 C 112.540 95.000 112.000 95.540 112.000 96.200 "/></g>
</svg>
